<svg width="120" height="123" viewBox="0 0 120 123" fill="none" xmlns="http://www.w3.org/2000/svg">
<g clip-path="url(#clip0)">
<path d="M86.28 104.11C85.81 103.92 85.3 103.81 84.76 103.81C84.22 103.81 83.71 103.92 83.24 104.11C82.77 104.31 82.34 104.59 81.99 104.95L81.96 104.97C81.76 105.17 81.57 105.4 81.42 105.65C81.34 105.78 81.26 105.92 81.19 106.07H74.88V100.59C73.91 101.04 72.9 101.38 71.87 101.59C71.69 101.63 71.52 101.66 71.34 101.69V107.83C71.34 108.32 71.54 108.76 71.86 109.08C72.18 109.4 72.62 109.6 73.11 109.6H81.25C81.31 109.72 81.38 109.84 81.46 109.96C81.6 110.17 81.76 110.37 81.94 110.55L81.97 110.58C82.33 110.94 82.77 111.24 83.26 111.44C83.73 111.63 84.24 111.74 84.78 111.74C85.3 111.74 85.81 111.64 86.27 111.45L86.3 111.44C86.79 111.24 87.22 110.94 87.59 110.58C87.95 110.22 88.25 109.78 88.45 109.29C88.64 108.82 88.75 108.31 88.75 107.77C88.75 107.24 88.64 106.73 88.45 106.25C88.25 105.76 87.95 105.32 87.59 104.96C87.21 104.61 86.77 104.31 86.28 104.11ZM57.43 66.61H50.03L48.97 70.09H42.31L50.26 48.97H57.4L65.32 70.09H58.49L57.43 66.61ZM56.05 62.03L53.74 54.44L51.42 62.03H56.05ZM67.16 48.96H73.71V70.08H67.16V48.96ZM62.17 27.31C61.09 28.09 60.09 29.14 59.22 30.5C59.18 30.57 59.12 30.63 59.05 30.67C58.78 30.84 58.42 30.76 58.25 30.5C57.38 29.14 56.38 28.09 55.3 27.31C54.14 26.47 52.89 25.94 51.6 25.68H51.58C50.32 25.42 49.03 25.42 47.79 25.64C46.48 25.87 45.21 26.35 44.07 27.01C42.94 27.67 41.92 28.52 41.07 29.5C40.25 30.45 39.59 31.54 39.16 32.71C39.09 32.89 39.03 33.08 38.97 33.28C38.92 33.46 38.86 33.66 38.82 33.86C38.77 34.12 38.55 34.31 38.27 34.32C36.93 34.52 35.6 35.01 34.36 35.74C33.1 36.49 31.93 37.51 30.92 38.73C29.92 39.95 29.08 41.39 28.48 42.99C27.92 44.49 27.58 46.14 27.51 47.89C27.5 48.12 27.5 48.34 27.5 48.57C27.5 48.78 27.51 49 27.51 49.23C27.52 49.42 27.44 49.62 27.27 49.74C26.45 50.33 25.71 50.94 25.05 51.57C24.38 52.22 23.79 52.89 23.28 53.58C22.45 54.71 21.84 55.89 21.43 57.08C21 58.32 20.79 59.59 20.77 60.84C20.76 62.04 20.92 63.23 21.26 64.38C21.6 65.55 22.12 66.69 22.79 67.75C23.17 68.36 23.6 68.96 24.07 69.52C24.55 70.09 25.07 70.63 25.63 71.14C25.77 71.27 25.85 71.48 25.81 71.68C25.65 72.44 25.57 73.19 25.54 73.93C25.52 74.69 25.56 75.44 25.66 76.17C25.85 77.51 26.24 78.79 26.79 79.97C27.37 81.23 28.13 82.38 29.01 83.39C29.86 84.38 30.83 85.24 31.87 85.95C32.92 86.67 34.03 87.23 35.17 87.62C35.68 87.79 36.2 87.93 36.73 88.03C37.23 88.13 37.73 88.19 38.22 88.21C38.49 88.2 38.74 88.39 38.8 88.67C39.06 89.86 39.54 90.98 40.2 91.99C40.89 93.05 41.76 93.99 42.76 94.77C44.02 95.75 45.5 96.49 47.06 96.88C48.53 97.25 50.08 97.32 51.6 97C52.96 96.72 54.28 96.14 55.5 95.22C56.62 94.37 57.66 93.23 58.53 91.75C58.58 91.66 58.66 91.59 58.76 91.54C59.04 91.39 59.39 91.5 59.54 91.78C60.26 93.12 61.14 94.19 62.12 95C63.18 95.87 64.35 96.46 65.58 96.8C67.15 97.23 68.79 97.23 70.38 96.9C72.08 96.55 73.72 95.81 75.13 94.79C76.24 94 77.22 93.03 78 91.93C78.74 90.9 79.29 89.75 79.61 88.54C79.65 88.31 79.83 88.11 80.08 88.07C81.55 87.81 83 87.2 84.33 86.29C85.66 85.38 86.87 84.18 87.86 82.75C88.77 81.43 89.5 79.91 89.97 78.25C90.41 76.7 90.62 75.02 90.55 73.25C90.53 73.05 90.62 72.85 90.8 72.73C91.66 72.14 92.42 71.52 93.1 70.89C93.79 70.23 94.4 69.55 94.92 68.84C95.72 67.76 96.31 66.64 96.72 65.49C97.14 64.3 97.36 63.09 97.4 61.88C97.43 60.71 97.29 59.55 96.99 58.41C96.69 57.26 96.22 56.15 95.61 55.1L95.59 55.08C95.19 54.39 94.72 53.73 94.2 53.09C93.68 52.45 93.09 51.85 92.46 51.28C92.31 51.15 92.23 50.94 92.27 50.73C92.41 50.04 92.5 49.35 92.53 48.67C92.56 47.98 92.54 47.3 92.47 46.63C92.32 45.24 91.95 43.92 91.41 42.69C90.84 41.39 90.08 40.19 89.19 39.14C88.33 38.12 87.34 37.23 86.28 36.49C85.22 35.75 84.09 35.17 82.94 34.78L82.91 34.77C82.3 34.56 81.68 34.41 81.07 34.31H81.05C80.45 34.21 79.85 34.17 79.26 34.18C78.99 34.2 78.73 34.02 78.66 33.74C78.56 33.33 78.43 32.93 78.28 32.54C78.12 32.14 77.94 31.75 77.73 31.36C77.19 30.36 76.48 29.44 75.65 28.65C74.8 27.84 73.83 27.15 72.79 26.62C71.72 26.08 70.55 25.7 69.35 25.53C68.21 25.37 67.04 25.39 65.89 25.63C64.6 25.94 63.33 26.47 62.17 27.31ZM78.52 38.57C78.59 38.35 78.79 38.18 79.04 38.16C79.46 38.13 79.89 38.15 80.32 38.22C80.76 38.29 81.2 38.4 81.64 38.55C82.47 38.83 83.3 39.26 84.07 39.8C84.83 40.33 85.55 40.98 86.17 41.72L86.18 41.74C86.83 42.51 87.38 43.37 87.79 44.31C88.18 45.19 88.44 46.13 88.55 47.12C88.62 47.78 88.62 48.47 88.54 49.17C88.47 49.82 88.32 50.49 88.09 51.16L88.08 51.2C87.94 51.62 87.95 52.06 88.08 52.45C88.22 52.85 88.48 53.21 88.85 53.45L88.88 53.47C89.58 53.99 90.2 54.56 90.74 55.16C91.3 55.77 91.78 56.43 92.18 57.11C92.62 57.86 92.96 58.64 93.17 59.44C93.39 60.23 93.49 61.03 93.46 61.82C93.44 62.64 93.28 63.46 92.99 64.27C92.71 65.04 92.3 65.8 91.76 66.54L91.75 66.55C91.26 67.22 90.64 67.88 89.91 68.51C89.21 69.11 88.4 69.68 87.47 70.23L87.44 70.25C87.07 70.46 86.8 70.78 86.64 71.15C86.48 71.52 86.43 71.93 86.51 72.33L86.52 72.41C86.71 73.94 86.62 75.4 86.31 76.73C85.97 78.18 85.38 79.48 84.61 80.59C84.02 81.44 83.34 82.17 82.61 82.75C81.86 83.35 81.05 83.79 80.22 84.06H80.21C79.91 84.15 79.58 83.98 79.49 83.68C78.36 79.99 76.41 78.8 73.11 77.1L73.04 77.06C72.58 76.84 72.08 76.82 71.63 76.96C71.18 77.1 70.79 77.41 70.56 77.86L70.53 77.92C70.31 78.38 70.29 78.88 70.43 79.33C70.58 79.78 70.9 80.18 71.36 80.42C74.12 81.83 76.16 82.9 76.13 86.36C76.12 87.39 75.8 88.39 75.26 89.29C74.69 90.24 73.87 91.09 72.92 91.78C71.95 92.48 70.86 92.99 69.74 93.24C68.67 93.49 67.57 93.5 66.54 93.22C64.8 92.74 63.67 91.58 62.91 90.17C62.19 88.83 61.79 87.27 61.5 85.85C61.48 85.8 61.48 85.74 61.48 85.69C61.48 84.97 60.92 84.5 60.19 84.29C59.87 84.19 59.52 84.15 59.18 84.15C58.83 84.15 58.49 84.2 58.17 84.29C57.45 84.51 56.89 84.98 56.89 85.69C56.89 85.74 56.88 85.78 56.87 85.83C56.31 88.05 55.5 89.72 54.55 90.92C53.44 92.33 52.14 93.1 50.8 93.38C49.82 93.58 48.81 93.53 47.85 93.28C46.84 93.01 45.88 92.52 45.04 91.88C44.21 91.23 43.52 90.44 43.04 89.55C42.58 88.7 42.31 87.76 42.31 86.8C42.31 83.16 44.51 81.94 47.42 80.45C47.88 80.21 48.2 79.81 48.35 79.36C48.5 78.9 48.47 78.39 48.24 77.92C48 77.46 47.6 77.14 47.15 76.99C46.7 76.85 46.2 76.87 45.74 77.09L45.71 77.1C42.28 78.85 40.23 80.13 39 83.94C38.93 84.19 38.69 84.38 38.42 84.37C38.08 84.36 37.74 84.32 37.39 84.25C37.05 84.18 36.71 84.09 36.39 83.97C35.58 83.69 34.77 83.28 34.01 82.76C33.26 82.24 32.56 81.62 31.94 80.9C31.3 80.16 30.75 79.33 30.33 78.42C29.93 77.57 29.65 76.66 29.51 75.71V75.69C29.41 74.99 29.39 74.26 29.47 73.51C29.54 72.81 29.69 72.08 29.94 71.36L29.95 71.33C30.09 70.92 30.08 70.49 29.96 70.11L29.95 70.09C29.82 69.69 29.56 69.34 29.2 69.09L29.18 69.07C28.54 68.59 27.96 68.08 27.45 67.52C26.93 66.96 26.47 66.36 26.09 65.74C25.63 64.99 25.27 64.19 25.03 63.37C24.8 62.57 24.68 61.75 24.69 60.91C24.7 60.06 24.85 59.19 25.15 58.34C25.44 57.53 25.86 56.72 26.44 55.93C26.93 55.26 27.53 54.6 28.25 53.97C28.94 53.36 29.72 52.78 30.62 52.23C30.95 52.03 31.19 51.75 31.35 51.43L31.36 51.4C31.52 51.07 31.58 50.7 31.53 50.33C31.52 50.29 31.52 50.25 31.52 50.21V50.19C31.47 49.84 31.44 49.49 31.42 49.15C31.4 48.78 31.4 48.41 31.41 48.05C31.46 46.74 31.71 45.51 32.12 44.4C32.56 43.21 33.18 42.14 33.92 41.23C34.53 40.48 35.23 39.85 35.96 39.36C36.69 38.87 37.46 38.52 38.25 38.32C38.55 38.23 38.88 38.4 38.97 38.7C39.59 40.66 40.37 41.89 41.86 43.28L41.92 43.33C42.29 43.67 42.77 43.83 43.24 43.81C43.71 43.79 44.17 43.6 44.51 43.23L44.54 43.19C44.88 42.82 45.04 42.34 45.02 41.87C45 41.4 44.8 40.93 44.42 40.57C43.22 39.46 42.95 38.77 42.59 37.65C42.17 36.36 42.24 35.1 42.65 33.98C42.93 33.21 43.37 32.49 43.93 31.86C44.48 31.23 45.15 30.67 45.89 30.24L45.92 30.22C46.68 29.78 47.5 29.46 48.35 29.3C49.16 29.15 49.99 29.14 50.8 29.31C51.94 29.55 53.06 30.15 54.05 31.19C54.92 32.1 55.69 33.36 56.3 35.02L56.31 35.04C56.52 35.69 57.2 36.07 58 36.22C58.36 36.29 58.74 36.31 59.11 36.29H59.12C59.5 36.27 59.86 36.2 60.2 36.09C60.8 35.89 61.27 35.57 61.38 35.16V34.93C61.38 33.77 62.07 32.54 63.02 31.53C64.06 30.43 65.45 29.56 66.62 29.32C67.36 29.17 68.11 29.16 68.84 29.27C69.6 29.39 70.34 29.63 71.04 29.98L71.1 30C71.81 30.36 72.46 30.82 73.03 31.36C73.59 31.9 74.07 32.51 74.43 33.18C75 34.23 75.26 35.43 75.08 36.7C74.92 37.81 74.88 38.51 73.95 39.62L73.94 39.63C73.61 40.02 73.47 40.51 73.51 40.99C73.55 41.45 73.76 41.9 74.13 42.22L74.19 42.27C74.58 42.59 75.06 42.72 75.53 42.68C75.99 42.64 76.44 42.43 76.76 42.06L76.81 41.99C77.77 40.85 78.08 40.01 78.52 38.57ZM100.48 87.51C100.29 87.04 100.18 86.53 100.18 85.99C100.18 85.45 100.29 84.94 100.48 84.47C100.68 84 100.96 83.57 101.32 83.22L101.34 83.19C101.54 82.99 101.77 82.8 102.02 82.65C102.15 82.57 102.29 82.49 102.44 82.42V76.11H94.68C94.69 75.7 94.69 75.29 94.67 74.87C94.65 74.64 94.75 74.41 94.95 74.28C95.75 73.73 96.48 73.16 97.14 72.57H104.2C104.69 72.57 105.13 72.77 105.45 73.09C105.77 73.41 105.97 73.85 105.97 74.34V82.48C106.09 82.54 106.21 82.61 106.33 82.69C106.54 82.83 106.74 82.99 106.92 83.17L106.95 83.2C107.31 83.56 107.61 84 107.81 84.49C108 84.96 108.11 85.47 108.11 86.01C108.11 86.53 108.01 87.03 107.82 87.5L107.81 87.53C107.61 88.02 107.31 88.45 106.95 88.82C106.59 89.18 106.15 89.48 105.66 89.68C105.19 89.87 104.68 89.98 104.14 89.98C103.61 89.98 103.1 89.87 102.62 89.68C102.13 89.48 101.69 89.18 101.33 88.82C100.98 88.44 100.68 88 100.48 87.51ZM111.72 67.26H101.17C101.35 66.87 101.51 66.48 101.65 66.08C101.93 65.3 102.13 64.51 102.25 63.72H111.72C111.79 63.59 111.86 63.46 111.94 63.33C112.09 63.09 112.27 62.87 112.46 62.68C112.83 62.31 113.26 62.02 113.75 61.82C114.22 61.63 114.73 61.52 115.27 61.52C115.79 61.52 116.29 61.62 116.76 61.81L116.79 61.82C117.28 62.02 117.71 62.32 118.08 62.68C118.44 63.04 118.74 63.48 118.94 63.97C119.13 64.44 119.24 64.95 119.24 65.49C119.24 66.02 119.13 66.53 118.94 67.01C118.74 67.5 118.44 67.94 118.08 68.3C117.72 68.66 117.28 68.96 116.79 69.16C116.32 69.35 115.81 69.46 115.27 69.46C114.75 69.46 114.25 69.36 113.78 69.17L113.75 69.16C113.26 68.96 112.83 68.66 112.46 68.3C112.27 68.11 112.1 67.9 111.95 67.67L111.93 67.64C111.86 67.52 111.79 67.39 111.72 67.26ZM115.08 57.58H101.81C101.47 56.46 100.99 55.37 100.39 54.33L100.37 54.3C100.32 54.21 100.27 54.13 100.22 54.04H113.32V42.49C113.22 42.43 113.12 42.37 113.02 42.3C112.82 42.16 112.64 42.01 112.47 41.84C112.11 41.48 111.81 41.04 111.61 40.55C111.42 40.08 111.31 39.57 111.31 39.03C111.31 38.5 111.42 37.98 111.61 37.51C111.81 37.02 112.11 36.59 112.47 36.22C112.83 35.86 113.27 35.56 113.76 35.36C114.23 35.17 114.74 35.06 115.28 35.06C115.81 35.06 116.32 35.17 116.8 35.36C117.29 35.56 117.73 35.86 118.09 36.22C118.45 36.58 118.75 37.02 118.95 37.51C119.14 37.98 119.25 38.49 119.25 39.03C119.25 39.55 119.15 40.05 118.96 40.52L118.95 40.55C118.75 41.04 118.45 41.47 118.09 41.84C117.87 42.06 117.61 42.26 117.34 42.43C117.19 42.52 117.02 42.61 116.86 42.68V55.8C116.86 56.29 116.66 56.73 116.34 57.05C116.01 57.38 115.57 57.58 115.08 57.58ZM101.21 49.04H96.69C96.81 48.38 96.88 47.72 96.91 47.06C96.93 46.53 96.93 46.01 96.9 45.5H99.44V40.28C99.3 40.21 99.17 40.14 99.04 40.05C98.8 39.9 98.58 39.72 98.37 39.51C98.01 39.15 97.71 38.71 97.51 38.22C97.32 37.75 97.21 37.24 97.21 36.71C97.21 36.18 97.32 35.67 97.51 35.19C97.71 34.72 97.99 34.29 98.34 33.93L98.37 33.9C98.73 33.54 99.17 33.24 99.66 33.04C100.13 32.85 100.64 32.74 101.18 32.74C101.72 32.74 102.23 32.85 102.7 33.04C103.17 33.24 103.6 33.52 103.96 33.88L103.99 33.9C104.35 34.26 104.64 34.68 104.84 35.16L104.85 35.19C105.04 35.66 105.15 36.17 105.15 36.71C105.15 37.24 105.04 37.76 104.85 38.23C104.65 38.7 104.37 39.13 104.02 39.49L103.99 39.52C103.8 39.71 103.59 39.88 103.35 40.04C103.23 40.12 103.11 40.19 102.98 40.25V47.27C102.98 47.76 102.78 48.2 102.46 48.52C102.14 48.84 101.69 49.04 101.21 49.04ZM31.13 18.77C31.6 18.96 32.11 19.07 32.65 19.07C33.19 19.07 33.7 18.96 34.17 18.77C34.64 18.57 35.07 18.29 35.42 17.93L35.45 17.91C35.65 17.71 35.84 17.48 35.99 17.23C36.07 17.1 36.15 16.96 36.22 16.81H42.53V22.26C43.64 21.67 44.84 21.24 46.07 20.99V15.04C46.07 14.55 45.87 14.11 45.55 13.79C45.23 13.47 44.79 13.27 44.3 13.27H36.16C36.1 13.15 36.03 13.03 35.95 12.91C35.81 12.7 35.65 12.5 35.47 12.32L35.44 12.29C35.08 11.93 34.64 11.63 34.15 11.43C33.68 11.24 33.17 11.13 32.63 11.13C32.11 11.13 31.6 11.23 31.14 11.42L31.11 11.43C30.62 11.63 30.19 11.93 29.82 12.29C29.46 12.65 29.16 13.09 28.96 13.58C28.77 14.05 28.66 14.56 28.66 15.1C28.66 15.63 28.77 16.14 28.96 16.62C29.16 17.11 29.46 17.55 29.82 17.91C30.21 18.27 30.64 18.57 31.13 18.77ZM51.39 7.53V21.19C52.57 21.53 53.72 22.07 54.8 22.85L54.92 22.94C54.92 22.91 54.93 22.88 54.93 22.85V7.53C55.06 7.46 55.19 7.39 55.32 7.31C55.56 7.16 55.78 6.98 55.97 6.79C56.33 6.42 56.63 5.99 56.83 5.5C57.02 5.03 57.13 4.52 57.13 3.98C57.13 3.46 57.03 2.96 56.84 2.49L56.83 2.46C56.63 1.97 56.33 1.54 55.97 1.17C55.61 0.81 55.17 0.51 54.68 0.31C54.21 0.12 53.7 0.01 53.16 0.01C52.63 0.01 52.12 0.12 51.64 0.31C51.15 0.51 50.71 0.81 50.35 1.17C49.99 1.53 49.69 1.97 49.49 2.46C49.3 2.93 49.19 3.44 49.19 3.98C49.19 4.5 49.29 5 49.48 5.47L49.49 5.5C49.69 5.99 49.99 6.42 50.35 6.79C50.54 6.98 50.75 7.15 50.98 7.3L51 7.31C51.13 7.39 51.25 7.46 51.39 7.53ZM61.06 4.17V24.15C61.54 23.66 62.05 23.23 62.57 22.85C63.22 22.38 63.9 21.99 64.6 21.69V5.93H76.15C76.21 6.03 76.27 6.13 76.34 6.23C76.48 6.43 76.63 6.61 76.8 6.78C77.16 7.14 77.6 7.44 78.09 7.64C78.56 7.83 79.07 7.94 79.61 7.94C80.14 7.94 80.66 7.83 81.13 7.64C81.62 7.44 82.06 7.14 82.42 6.78C82.78 6.42 83.08 5.98 83.28 5.49C83.47 5.02 83.58 4.51 83.58 3.97C83.58 3.44 83.47 2.93 83.28 2.45C83.08 1.96 82.78 1.52 82.42 1.16C82.04 0.8 81.6 0.5 81.11 0.3C80.64 0.11 80.13 0 79.6 0C79.08 0 78.58 0.1 78.11 0.29L78.08 0.3C77.59 0.5 77.16 0.8 76.79 1.16C76.57 1.38 76.37 1.64 76.2 1.91C76.11 2.06 76.02 2.23 75.95 2.39H62.83C62.34 2.39 61.9 2.59 61.58 2.91C61.26 3.24 61.06 3.68 61.06 4.17ZM69.6 18.04V20.78C69.96 20.8 70.33 20.83 70.69 20.89C71.53 21.01 72.35 21.22 73.14 21.51V19.82H78.36C78.43 19.96 78.5 20.09 78.59 20.22C78.74 20.46 78.92 20.68 79.13 20.89C79.49 21.25 79.93 21.55 80.42 21.75C80.89 21.94 81.4 22.05 81.93 22.05C82.46 22.05 82.97 21.94 83.45 21.75C83.92 21.55 84.35 21.27 84.71 20.92L84.74 20.89C85.1 20.53 85.4 20.09 85.6 19.6C85.79 19.13 85.9 18.62 85.9 18.08C85.9 17.54 85.79 17.03 85.6 16.56C85.4 16.09 85.12 15.66 84.76 15.3L84.74 15.27C84.38 14.91 83.96 14.62 83.48 14.42L83.45 14.41C82.98 14.22 82.47 14.11 81.93 14.11C81.4 14.11 80.88 14.22 80.41 14.41C79.94 14.61 79.51 14.89 79.15 15.24L79.12 15.27C78.93 15.46 78.76 15.67 78.6 15.91C78.52 16.03 78.45 16.15 78.39 16.28H71.37C70.88 16.28 70.44 16.48 70.12 16.8C69.8 17.11 69.6 17.55 69.6 18.04ZM18.77 35.2C18.96 35.67 19.07 36.18 19.07 36.72C19.07 37.26 18.96 37.77 18.77 38.24C18.57 38.71 18.29 39.14 17.93 39.49L17.91 39.52C17.71 39.72 17.48 39.91 17.23 40.06C17.1 40.14 16.96 40.22 16.81 40.29V46.6H23.36V46.91C23.36 47.15 23.37 47.4 23.38 47.66C23.4 47.88 23.3 48.1 23.11 48.24C22.25 48.85 21.48 49.49 20.78 50.14H15.06C14.57 50.14 14.13 49.94 13.81 49.62C13.49 49.3 13.29 48.86 13.29 48.37V40.23C13.17 40.17 13.05 40.1 12.93 40.02C12.72 39.88 12.52 39.72 12.34 39.54L12.31 39.51C11.95 39.15 11.65 38.71 11.45 38.22C11.26 37.75 11.15 37.24 11.15 36.7C11.15 36.18 11.25 35.68 11.44 35.21L11.45 35.18C11.65 34.69 11.95 34.26 12.31 33.89C12.67 33.53 13.11 33.23 13.6 33.03C14.07 32.84 14.58 32.73 15.12 32.73C15.65 32.73 16.16 32.84 16.64 33.03C17.13 33.23 17.57 33.53 17.93 33.89C18.27 34.27 18.57 34.71 18.77 35.2ZM7.53 55.45H16.93C16.77 55.81 16.63 56.18 16.5 56.54C16.22 57.35 16.02 58.16 15.9 58.98H7.53C7.46 59.11 7.39 59.24 7.31 59.37C7.16 59.61 6.98 59.83 6.79 60.02C6.42 60.39 5.99 60.68 5.5 60.88C5.03 61.07 4.52 61.18 3.98 61.18C3.46 61.18 2.96 61.08 2.49 60.89L2.46 60.88C1.97 60.68 1.54 60.38 1.17 60.02C0.81 59.66 0.51 59.22 0.31 58.73C0.12 58.26 0.01 57.75 0.01 57.21C0.01 56.68 0.12 56.17 0.31 55.69C0.51 55.2 0.81 54.76 1.17 54.4C1.53 54.04 1.97 53.74 2.46 53.54C2.93 53.35 3.44 53.24 3.98 53.24C4.5 53.24 5 53.34 5.47 53.53L5.5 53.54C5.99 53.74 6.42 54.04 6.79 54.4C6.98 54.59 7.15 54.8 7.3 55.03L7.32 55.06C7.39 55.19 7.46 55.32 7.53 55.45ZM4.17 65.13H16.4C16.78 66.34 17.33 67.51 18.03 68.62V68.63L18.05 68.67H5.93V80.22C6.03 80.28 6.13 80.34 6.23 80.41C6.43 80.55 6.61 80.7 6.78 80.87C7.14 81.23 7.44 81.67 7.64 82.16C7.83 82.63 7.94 83.14 7.94 83.68C7.94 84.21 7.83 84.73 7.64 85.2C7.44 85.69 7.14 86.12 6.78 86.49C6.42 86.85 5.98 87.15 5.49 87.35C5.02 87.54 4.51 87.65 3.97 87.65C3.44 87.65 2.93 87.54 2.45 87.35C1.96 87.15 1.52 86.85 1.16 86.49C0.8 86.1 0.5 85.66 0.3 85.18C0.11 84.71 0 84.2 0 83.66C0 83.14 0.1 82.64 0.29 82.17L0.3 82.14C0.5 81.65 0.8 81.22 1.16 80.85C1.38 80.63 1.64 80.43 1.91 80.26C2.06 80.17 2.23 80.08 2.39 80.01V66.89C2.39 66.4 2.59 65.96 2.91 65.64C3.24 65.33 3.68 65.13 4.17 65.13ZM18.04 73.67H21.34C21.23 74.33 21.17 74.98 21.15 75.62C21.13 76.16 21.14 76.69 21.18 77.21H19.81V82.43C19.95 82.5 20.08 82.57 20.21 82.66C20.45 82.81 20.67 82.99 20.88 83.2C21.24 83.56 21.54 84 21.74 84.49C21.93 84.96 22.04 85.47 22.04 86.01C22.04 86.55 21.93 87.05 21.74 87.53C21.54 88 21.26 88.43 20.91 88.79L20.88 88.82C20.52 89.18 20.08 89.48 19.59 89.68C19.12 89.87 18.61 89.98 18.07 89.98C17.53 89.98 17.02 89.87 16.55 89.68C16.08 89.48 15.65 89.2 15.29 88.84L15.26 88.82C14.9 88.46 14.61 88.04 14.41 87.56L14.4 87.53C14.21 87.06 14.1 86.55 14.1 86.01C14.1 85.48 14.21 84.96 14.4 84.49C14.6 84.02 14.88 83.59 15.23 83.23L15.26 83.2C15.45 83.01 15.66 82.84 15.9 82.68C16.02 82.6 16.14 82.53 16.27 82.47V75.45C16.27 74.96 16.47 74.52 16.79 74.2C17.11 73.86 17.55 73.67 18.04 73.67ZM66.03 115.35V101.36C64.78 100.97 63.6 100.34 62.52 99.45L62.5 99.43V115.36C62.37 115.43 62.24 115.5 62.11 115.58C61.87 115.73 61.65 115.91 61.46 116.1C61.1 116.47 60.8 116.9 60.6 117.39C60.41 117.86 60.3 118.37 60.3 118.91C60.3 119.43 60.4 119.93 60.59 120.4L60.6 120.43C60.8 120.92 61.1 121.35 61.46 121.72C61.82 122.08 62.26 122.38 62.75 122.58C63.22 122.77 63.73 122.88 64.27 122.88C64.8 122.88 65.31 122.77 65.79 122.58C66.28 122.38 66.72 122.08 67.08 121.72C67.44 121.36 67.74 120.92 67.94 120.43C68.13 119.96 68.24 119.45 68.24 118.91C68.24 118.39 68.14 117.89 67.95 117.42L67.94 117.39C67.74 116.9 67.44 116.47 67.08 116.1C66.89 115.91 66.68 115.74 66.45 115.59L66.42 115.57C66.29 115.49 66.16 115.42 66.03 115.35ZM56.35 118.71V98.55C55.93 98.98 55.49 99.36 55.03 99.71C54.32 100.25 53.58 100.68 52.81 101.02V116.96H41.26C41.2 116.86 41.14 116.76 41.07 116.66C40.93 116.46 40.78 116.28 40.61 116.11C40.25 115.75 39.81 115.45 39.32 115.25C38.85 115.06 38.34 114.95 37.8 114.95C37.27 114.95 36.75 115.06 36.28 115.25C35.79 115.45 35.36 115.75 34.99 116.11C34.63 116.47 34.33 116.91 34.13 117.4C33.94 117.87 33.83 118.38 33.83 118.92C33.83 119.45 33.94 119.96 34.13 120.44C34.33 120.93 34.63 121.37 34.99 121.73C35.35 122.09 35.79 122.39 36.28 122.59C36.75 122.78 37.26 122.89 37.8 122.89C38.32 122.89 38.82 122.79 39.29 122.6L39.32 122.59C39.81 122.39 40.24 122.09 40.61 121.73C40.83 121.51 41.03 121.25 41.2 120.98C41.29 120.83 41.38 120.66 41.45 120.5H54.57C55.06 120.5 55.5 120.3 55.82 119.98C56.15 119.64 56.35 119.2 56.35 118.71ZM47.81 104.84V101.93C47.03 101.89 46.25 101.77 45.49 101.58C45.08 101.48 44.67 101.35 44.27 101.21V103.08H39.05C38.98 102.94 38.91 102.81 38.82 102.68C38.67 102.44 38.49 102.22 38.28 102.01C37.92 101.65 37.48 101.35 36.99 101.15C36.52 100.96 36.01 100.85 35.48 100.85C34.95 100.85 34.44 100.96 33.96 101.15C33.49 101.35 33.06 101.63 32.7 101.98L32.67 102C32.31 102.36 32.01 102.8 31.81 103.29C31.62 103.76 31.51 104.27 31.51 104.81C31.51 105.35 31.62 105.86 31.81 106.33C32.01 106.8 32.29 107.23 32.65 107.59L32.67 107.62C33.03 107.98 33.45 108.27 33.93 108.47L33.96 108.48C34.43 108.67 34.94 108.78 35.48 108.78C36.01 108.78 36.52 108.67 37 108.48C37.47 108.28 37.9 108 38.26 107.65L38.29 107.62C38.48 107.43 38.65 107.22 38.81 106.98C38.89 106.86 38.96 106.74 39.02 106.61H46.04C46.53 106.61 46.97 106.41 47.29 106.09C47.61 105.77 47.81 105.33 47.81 104.84Z" fill="white"/>
</g>
<defs>
<clipPath id="clip0">
<rect width="119.25" height="122.88" fill="white"/>
</clipPath>
</defs>
</svg>
