<svg width="1773" height="2500" viewBox="0 0 1773 2500" fill="none" xmlns="http://www.w3.org/2000/svg">
<path d="M1769.77 490.069L1608.82 2293.12L885.346 2493.68L163.864 2293.39L3.08179 490.069H1769.77Z" fill="#E44D26"/>
<path d="M886.427 2340.37L1471.03 2178.3L1608.57 637.514H886.427V2340.37Z" fill="#F16529"/>
<path d="M573.546 1079.86H886.427V858.691H331.835L337.126 918.026L391.489 1527.51H886.427V1306.34H593.76L573.546 1079.86V1079.86ZM623.393 1638.1H401.371L432.355 1985.37L885.409 2111.14L886.427 2110.86V1880.75L885.457 1881L639.141 1814.49L623.393 1638.1V1638.1Z" fill="#EBEBEB"/>
<path d="M167.451 0H279.848V111.046H382.666V0H495.069V336.274H382.673V223.67H279.854V336.274H167.458V0H167.451ZM642.867 111.517H543.933V0H854.28V111.517H755.284V336.274H642.888V111.517H642.881H642.867ZM903.532 0H1020.73L1092.82 118.158L1164.84 0H1282.08V336.274H1170.15V169.598L1092.82 289.162H1090.88L1013.5 169.598V336.274H903.532V0ZM1338.02 0H1450.45V225.125H1608.51V336.274H1338.01V0H1338.02Z" fill="white"/>
<path d="M885.665 1527.51H1158.01L1132.33 1814.36L885.658 1880.93V2111.03L1339.07 1985.37L1342.4 1948.01L1394.38 1365.73L1399.77 1306.34H885.665V1527.51ZM885.665 1079.32V1079.86H1419.9L1424.33 1030.15L1434.41 918.026L1439.7 858.691H885.665V1079.33V1079.32Z" fill="white"/>
</svg>
