<svg width="1686" height="2062" viewBox="0 0 1686 2062" fill="none" xmlns="http://www.w3.org/2000/svg">
<path d="M29.7207 1814.4H82.7132V2056.6H29.7207V1814.4ZM129.471 1814.4H243.249C289.072 1814.4 320.868 1829.36 320.868 1874.87C320.868 1898.25 309.334 1915.08 287.825 1925.99C317.439 1934.41 332.402 1956.85 332.402 1987.71C332.402 2036.65 290.943 2057.85 246.367 2057.85H129.471V1814.4V1814.4ZM183.711 1913.21H237.95C256.965 1913.21 270.993 1904.8 270.993 1884.53C270.993 1861.15 252.913 1856.79 233.898 1856.79H184.022L183.711 1913.21ZM183.711 2015.14H241.067C262.264 2015.14 280.344 2008.91 280.344 1983.35C280.344 1959.03 264.446 1948.44 242.002 1948.44H183.711V2015.14V2015.14ZM369.496 1814.4H443.998L500.419 1981.17H501.354L555.594 1814.4H631.03V2056.6H581.155V1885.47H579.908L520.369 2057.54H478.91L419.372 1887.65H418.436V2057.54H369.496V1814.4V1814.4ZM933.711 1896.07C930.594 1871.75 907.214 1853.67 880.718 1853.67C833.025 1853.67 814.945 1893.89 814.945 1936.59C814.945 1976.8 833.025 2017.33 880.718 2017.33C913.761 2017.33 931.84 1994.88 935.893 1963.09H987.95C982.651 2023.56 941.192 2061.9 881.653 2061.9C806.217 2061.9 762.576 2005.48 762.576 1935.34C761.641 1864.27 804.97 1808.79 880.406 1808.79C933.399 1808.79 978.287 1839.65 985.456 1895.76H933.711V1896.07ZM1019.75 1814.4H1067.44V2056.6H1019.75V1814.4ZM1191.82 1877.05C1246.99 1877.05 1283.15 1914.15 1283.15 1969.32C1283.15 2024.5 1246.99 2061.59 1191.82 2061.59C1136.64 2061.59 1101.42 2024.5 1101.42 1969.32C1100.48 1913.21 1136.64 1877.05 1191.82 1877.05ZM1191.82 2025.74C1224.86 2025.74 1234.21 1997.06 1234.21 1969.32C1234.21 1940.64 1224.55 1912.9 1191.82 1912.9C1158.77 1912.9 1149.42 1941.58 1149.42 1969.32C1149.42 1997.06 1158.77 2025.74 1191.82 2025.74ZM1478.6 2056.6H1432.78V2032.29H1431.84C1419.06 2052.55 1398.8 2061.9 1377.6 2061.9C1326.48 2061.9 1314.01 2033.22 1314.01 1989.58V1881.1H1361.7V1979.92C1361.7 2008.6 1370.12 2023.56 1392.56 2023.56C1419.06 2023.56 1429.66 2008.6 1429.66 1973.69V1881.42H1477.66V2056.6H1478.6V2056.6ZM1640.07 2034.16C1628.54 2053.17 1608.27 2061.9 1585.83 2061.9C1532.84 2061.9 1507.28 2016.08 1507.28 1967.45C1507.28 1920.69 1533.77 1876.12 1584.9 1876.12C1606.09 1876.12 1626.35 1884.53 1636.95 1902.61H1637.89V1814.4H1685.58V2056.6H1639.76V2034.16H1640.07ZM1598.61 1913.21C1566.82 1913.21 1556.22 1940.96 1556.22 1969.63C1556.22 1997.38 1569 2026.05 1598.61 2026.05C1630.41 2026.05 1640.07 1998.31 1640.07 1969.63C1640.07 1939.71 1629.47 1913.21 1598.61 1913.21Z" fill="white"/>
<path d="M1403.79 1122.82L878.536 1395.26V855.985L1403.79 581.047V1122.82Z" fill="white"/>
<path d="M792.19 1395.26L308.711 1145.26V605.985L792.19 855.985V1395.26Z" fill="white"/>
<path d="M1665.01 427.993L1156.28 166.771L987.015 252.806L1484.52 508.728V1423.32L1665.01 1331.36V427.993Z" fill="white"/>
<path d="M1403.79 1214.78L836.766 1509.35L2.91266 1078.55L0.107178 1334.16L831.155 1759.35L1403.79 1467.58V1214.78Z" fill="white"/>
<path d="M1061.83 119.389L831.155 0L2.91266 427.993L0.107178 986.908L225.17 1100.69V552.993L1061.83 119.389Z" fill="white"/>
<path d="M836.766 786.783L394.746 558.603L897.863 300.187L1337.08 528.055L836.766 786.783Z" fill="white"/>
</svg>
