<svg width="199" height="20" viewBox="0 0 199 20" fill="none" xmlns="http://www.w3.org/2000/svg">
<circle cx="10" cy="10" r="9" fill="black" stroke="white" stroke-width="2"/>
<path d="M40.0449 15C39.9538 14.8223 39.8877 14.6012 39.8467 14.3369C39.3682 14.8701 38.7461 15.1367 37.9805 15.1367C37.2559 15.1367 36.6543 14.9271 36.1758 14.5078C35.7018 14.0885 35.4648 13.5599 35.4648 12.9219C35.4648 12.138 35.7542 11.5365 36.333 11.1172C36.9163 10.6979 37.7572 10.486 38.8555 10.4814H39.7646V10.0576C39.7646 9.71582 39.6758 9.44238 39.498 9.2373C39.3249 9.03223 39.0492 8.92969 38.6709 8.92969C38.3382 8.92969 38.0762 9.00944 37.8848 9.16895C37.6979 9.32845 37.6045 9.5472 37.6045 9.8252H35.6289C35.6289 9.39681 35.7611 9.00033 36.0254 8.63574C36.2897 8.27116 36.6634 7.98633 37.1465 7.78125C37.6296 7.57161 38.1719 7.4668 38.7734 7.4668C39.6849 7.4668 40.4072 7.69694 40.9404 8.15723C41.4782 8.61296 41.7471 9.25553 41.7471 10.085V13.291C41.7516 13.9928 41.8496 14.5238 42.041 14.8838V15H40.0449ZM38.4111 13.626C38.7028 13.626 38.9717 13.5622 39.2178 13.4346C39.4639 13.3024 39.6462 13.127 39.7646 12.9082V11.6367H39.0264C38.0374 11.6367 37.5111 11.9785 37.4473 12.6621L37.4404 12.7783C37.4404 13.0244 37.527 13.2272 37.7002 13.3867C37.8734 13.5462 38.1104 13.626 38.4111 13.626ZM48.4996 15H46.5172V4.5H48.4996V15ZM59.716 12.3135L60.6867 7.60352H62.5939L60.7072 15H59.0529L57.6516 10.3447L56.2502 15H54.6027L52.716 7.60352H54.6232L55.5871 12.3066L56.9406 7.60352H58.3693L59.716 12.3135ZM71.0145 15C70.9233 14.8223 70.8572 14.6012 70.8162 14.3369C70.3377 14.8701 69.7156 15.1367 68.95 15.1367C68.2254 15.1367 67.6238 14.9271 67.1453 14.5078C66.6714 14.0885 66.4344 13.5599 66.4344 12.9219C66.4344 12.138 66.7238 11.5365 67.3025 11.1172C67.8859 10.6979 68.7267 10.486 69.825 10.4814H70.7342V10.0576C70.7342 9.71582 70.6453 9.44238 70.4676 9.2373C70.2944 9.03223 70.0187 8.92969 69.6404 8.92969C69.3077 8.92969 69.0457 9.00944 68.8543 9.16895C68.6674 9.32845 68.574 9.5472 68.574 9.8252H66.5984C66.5984 9.39681 66.7306 9.00033 66.9949 8.63574C67.2592 8.27116 67.6329 7.98633 68.116 7.78125C68.5991 7.57161 69.1414 7.4668 69.743 7.4668C70.6544 7.4668 71.3768 7.69694 71.91 8.15723C72.4477 8.61296 72.7166 9.25553 72.7166 10.085V13.291C72.7212 13.9928 72.8191 14.5238 73.0105 14.8838V15H71.0145ZM69.3807 13.626C69.6723 13.626 69.9412 13.5622 70.1873 13.4346C70.4334 13.3024 70.6157 13.127 70.7342 12.9082V11.6367H69.9959C69.007 11.6367 68.4806 11.9785 68.4168 12.6621L68.41 12.7783C68.41 13.0244 68.4966 13.2272 68.6697 13.3867C68.8429 13.5462 69.0799 13.626 69.3807 13.626ZM80.0365 12.2041L81.4037 7.60352H83.5229L80.5492 16.1484L80.3852 16.5381C79.9431 17.5042 79.2139 17.9873 78.1977 17.9873C77.9105 17.9873 77.6189 17.944 77.3227 17.8574V16.3604L77.6234 16.3672C77.9971 16.3672 78.2751 16.3102 78.4574 16.1963C78.6443 16.0824 78.7901 15.8932 78.8949 15.6289L79.1273 15.0205L76.5365 7.60352H78.6625L80.0365 12.2041ZM91.458 12.9561C91.458 12.7145 91.3372 12.5254 91.0957 12.3887C90.8587 12.2474 90.4759 12.1221 89.9473 12.0127C88.1882 11.6436 87.3086 10.8962 87.3086 9.77051C87.3086 9.11426 87.5798 8.56738 88.1221 8.12988C88.6689 7.68783 89.3822 7.4668 90.2617 7.4668C91.2005 7.4668 91.9502 7.68783 92.5107 8.12988C93.0758 8.57194 93.3584 9.14616 93.3584 9.85254H91.3828C91.3828 9.56999 91.2917 9.33757 91.1094 9.15527C90.9271 8.96842 90.6423 8.875 90.2549 8.875C89.9222 8.875 89.6647 8.9502 89.4824 9.10059C89.3001 9.25098 89.209 9.44238 89.209 9.6748C89.209 9.89355 89.3115 10.0713 89.5166 10.208C89.7262 10.3402 90.0771 10.4564 90.5693 10.5566C91.0615 10.6523 91.4762 10.7617 91.8135 10.8848C92.8571 11.2676 93.3789 11.9307 93.3789 12.874C93.3789 13.5485 93.0895 14.0954 92.5107 14.5146C91.932 14.9294 91.1846 15.1367 90.2686 15.1367C89.6488 15.1367 89.0973 15.0273 88.6143 14.8086C88.1357 14.5853 87.7598 14.2822 87.4863 13.8994C87.2129 13.512 87.0762 13.0951 87.0762 12.6484H88.9492C88.9674 12.9993 89.0973 13.2682 89.3389 13.4551C89.5804 13.6419 89.904 13.7354 90.3096 13.7354C90.6878 13.7354 90.9727 13.6647 91.1641 13.5234C91.36 13.3776 91.458 13.1885 91.458 12.9561ZM106.529 15H104.546V4.5H106.529V15ZM114.717 15.1367C113.632 15.1367 112.748 14.804 112.064 14.1387C111.385 13.4733 111.046 12.5869 111.046 11.4795V11.2881C111.046 10.5452 111.189 9.88216 111.476 9.29883C111.763 8.71094 112.169 8.25977 112.693 7.94531C113.222 7.6263 113.823 7.4668 114.498 7.4668C115.51 7.4668 116.305 7.78581 116.884 8.42383C117.467 9.06185 117.759 9.96647 117.759 11.1377V11.9443H113.049C113.112 12.4274 113.304 12.8148 113.623 13.1064C113.946 13.3981 114.354 13.5439 114.846 13.5439C115.608 13.5439 116.202 13.2682 116.631 12.7168L117.601 13.8037C117.305 14.223 116.904 14.5511 116.398 14.7881C115.892 15.0205 115.332 15.1367 114.717 15.1367ZM114.491 9.06641C114.099 9.06641 113.78 9.19857 113.534 9.46289C113.292 9.72721 113.137 10.1055 113.069 10.5977H115.817V10.4404C115.808 10.0029 115.69 9.66569 115.462 9.42871C115.234 9.18717 114.91 9.06641 114.491 9.06641ZM126.323 15C126.232 14.8223 126.165 14.6012 126.124 14.3369C125.646 14.8701 125.024 15.1367 124.258 15.1367C123.534 15.1367 122.932 14.9271 122.454 14.5078C121.98 14.0885 121.743 13.5599 121.743 12.9219C121.743 12.138 122.032 11.5365 122.611 11.1172C123.194 10.6979 124.035 10.486 125.133 10.4814H126.042V10.0576C126.042 9.71582 125.954 9.44238 125.776 9.2373C125.603 9.03223 125.327 8.92969 124.949 8.92969C124.616 8.92969 124.354 9.00944 124.162 9.16895C123.976 9.32845 123.882 9.5472 123.882 9.8252H121.907C121.907 9.39681 122.039 9.00033 122.303 8.63574C122.567 8.27116 122.941 7.98633 123.424 7.78125C123.907 7.57161 124.45 7.4668 125.051 7.4668C125.963 7.4668 126.685 7.69694 127.218 8.15723C127.756 8.61296 128.025 9.25553 128.025 10.085V13.291C128.029 13.9928 128.127 14.5238 128.319 14.8838V15H126.323ZM124.689 13.626C124.981 13.626 125.249 13.5622 125.496 13.4346C125.742 13.3024 125.924 13.127 126.042 12.9082V11.6367H125.304C124.315 11.6367 123.789 11.9785 123.725 12.6621L123.718 12.7783C123.718 13.0244 123.805 13.2272 123.978 13.3867C124.151 13.5462 124.388 13.626 124.689 13.626ZM136.849 9.45605C136.58 9.4196 136.343 9.40137 136.138 9.40137C135.39 9.40137 134.9 9.6543 134.668 10.1602V15H132.692V7.60352H134.559L134.613 8.48535C135.01 7.80632 135.559 7.4668 136.261 7.4668C136.479 7.4668 136.685 7.49642 136.876 7.55566L136.849 9.45605ZM142.774 7.60352L142.836 8.45801C143.364 7.7972 144.073 7.4668 144.962 7.4668C145.745 7.4668 146.329 7.69694 146.712 8.15723C147.094 8.61751 147.29 9.30566 147.299 10.2217V15H145.324V10.2695C145.324 9.85026 145.233 9.5472 145.05 9.36035C144.868 9.16895 144.565 9.07324 144.141 9.07324C143.585 9.07324 143.168 9.31022 142.89 9.78418V15H140.915V7.60352H142.774ZM154.038 15H152.056V7.60352H154.038V15ZM151.94 5.68945C151.94 5.39323 152.038 5.14941 152.234 4.95801C152.434 4.7666 152.705 4.6709 153.047 4.6709C153.384 4.6709 153.653 4.7666 153.854 4.95801C154.054 5.14941 154.154 5.39323 154.154 5.68945C154.154 5.99023 154.052 6.23633 153.847 6.42773C153.646 6.61914 153.38 6.71484 153.047 6.71484C152.714 6.71484 152.446 6.61914 152.24 6.42773C152.04 6.23633 151.94 5.99023 151.94 5.68945ZM160.64 7.60352L160.702 8.45801C161.231 7.7972 161.939 7.4668 162.828 7.4668C163.612 7.4668 164.195 7.69694 164.578 8.15723C164.961 8.61751 165.157 9.30566 165.166 10.2217V15H163.19V10.2695C163.19 9.85026 163.099 9.5472 162.917 9.36035C162.735 9.16895 162.431 9.07324 162.008 9.07324C161.452 9.07324 161.035 9.31022 160.757 9.78418V15H158.781V7.60352H160.64ZM169.533 11.2471C169.533 10.1123 169.802 9.19857 170.339 8.50586C170.882 7.81315 171.611 7.4668 172.527 7.4668C173.338 7.4668 173.969 7.74479 174.42 8.30078L174.502 7.60352H176.293V14.7539C176.293 15.401 176.145 15.9639 175.849 16.4424C175.557 16.9209 175.145 17.2855 174.612 17.5361C174.079 17.7868 173.454 17.9121 172.739 17.9121C172.196 17.9121 171.668 17.8027 171.153 17.584C170.638 17.3698 170.248 17.0918 169.984 16.75L170.859 15.5469C171.351 16.0983 171.948 16.374 172.65 16.374C173.174 16.374 173.582 16.2327 173.873 15.9502C174.165 15.6722 174.311 15.2757 174.311 14.7607V14.3643C173.855 14.8792 173.256 15.1367 172.513 15.1367C171.624 15.1367 170.904 14.7904 170.353 14.0977C169.806 13.4004 169.533 12.4775 169.533 11.3291V11.2471ZM171.508 11.3906C171.508 12.0605 171.643 12.5869 171.912 12.9697C172.18 13.348 172.55 13.5371 173.019 13.5371C173.621 13.5371 174.051 13.3115 174.311 12.8604V9.75C174.047 9.29883 173.621 9.07324 173.033 9.07324C172.559 9.07324 172.185 9.26693 171.912 9.6543C171.643 10.0417 171.508 10.6204 171.508 11.3906ZM181.07 14.0293C181.07 13.7148 181.175 13.4596 181.385 13.2637C181.599 13.0677 181.866 12.9697 182.185 12.9697C182.508 12.9697 182.775 13.0677 182.984 13.2637C183.199 13.4596 183.306 13.7148 183.306 14.0293C183.306 14.3392 183.201 14.5921 182.991 14.7881C182.782 14.9795 182.513 15.0752 182.185 15.0752C181.861 15.0752 181.594 14.9795 181.385 14.7881C181.175 14.5921 181.07 14.3392 181.07 14.0293ZM188.295 14.0293C188.295 13.7148 188.399 13.4596 188.609 13.2637C188.823 13.0677 189.09 12.9697 189.409 12.9697C189.732 12.9697 189.999 13.0677 190.209 13.2637C190.423 13.4596 190.53 13.7148 190.53 14.0293C190.53 14.3392 190.425 14.5921 190.215 14.7881C190.006 14.9795 189.737 15.0752 189.409 15.0752C189.085 15.0752 188.819 14.9795 188.609 14.7881C188.399 14.5921 188.295 14.3392 188.295 14.0293ZM195.519 14.0293C195.519 13.7148 195.624 13.4596 195.833 13.2637C196.047 13.0677 196.314 12.9697 196.633 12.9697C196.957 12.9697 197.223 13.0677 197.433 13.2637C197.647 13.4596 197.754 13.7148 197.754 14.0293C197.754 14.3392 197.649 14.5921 197.44 14.7881C197.23 14.9795 196.961 15.0752 196.633 15.0752C196.309 15.0752 196.043 14.9795 195.833 14.7881C195.624 14.5921 195.519 14.3392 195.519 14.0293Z" fill="white"/>
</svg>
