<svg width="172" height="20" viewBox="0 0 172 20" fill="none" xmlns="http://www.w3.org/2000/svg">
<circle cx="10" cy="10" r="9" fill="black" stroke="white" stroke-width="2"/>
<path d="M29.0059 11.0078L27.9395 12.1562V15H25.8887V5.04688H27.9395V9.55859L28.8418 8.32129L31.3779 5.04688H33.9004L30.3662 9.46973L34.0029 15H31.5625L29.0059 11.0078ZM41.0221 15.1367C39.9374 15.1367 39.0533 14.804 38.3697 14.1387C37.6907 13.4733 37.3512 12.5869 37.3512 11.4795V11.2881C37.3512 10.5452 37.4947 9.88216 37.7818 9.29883C38.0689 8.71094 38.4745 8.25977 38.9986 7.94531C39.5273 7.6263 40.1288 7.4668 40.8033 7.4668C41.815 7.4668 42.6103 7.78581 43.1891 8.42383C43.7724 9.06185 44.0641 9.96647 44.0641 11.1377V11.9443H39.3541C39.4179 12.4274 39.6093 12.8148 39.9283 13.1064C40.2519 13.3981 40.6598 13.5439 41.152 13.5439C41.913 13.5439 42.5077 13.2682 42.9361 12.7168L43.9068 13.8037C43.6106 14.223 43.2096 14.5511 42.7037 14.7881C42.1979 15.0205 41.6373 15.1367 41.0221 15.1367ZM40.7965 9.06641C40.4046 9.06641 40.0855 9.19857 39.8395 9.46289C39.5979 9.72721 39.443 10.1055 39.3746 10.5977H42.1227V10.4404C42.1135 10.0029 41.9951 9.66569 41.7672 9.42871C41.5393 9.18717 41.2158 9.06641 40.7965 9.06641ZM51.7463 15.1367C50.6617 15.1367 49.7775 14.804 49.0939 14.1387C48.4149 13.4733 48.0754 12.5869 48.0754 11.4795V11.2881C48.0754 10.5452 48.2189 9.88216 48.5061 9.29883C48.7932 8.71094 49.1988 8.25977 49.7229 7.94531C50.2515 7.6263 50.8531 7.4668 51.5275 7.4668C52.5393 7.4668 53.3345 7.78581 53.9133 8.42383C54.4966 9.06185 54.7883 9.96647 54.7883 11.1377V11.9443H50.0783C50.1421 12.4274 50.3335 12.8148 50.6525 13.1064C50.9761 13.3981 51.384 13.5439 51.8762 13.5439C52.6372 13.5439 53.232 13.2682 53.6604 12.7168L54.6311 13.8037C54.3348 14.223 53.9338 14.5511 53.4279 14.7881C52.9221 15.0205 52.3615 15.1367 51.7463 15.1367ZM51.5207 9.06641C51.1288 9.06641 50.8098 9.19857 50.5637 9.46289C50.3221 9.72721 50.1672 10.1055 50.0988 10.5977H52.8469V10.4404C52.8378 10.0029 52.7193 9.66569 52.4914 9.42871C52.2635 9.18717 51.94 9.06641 51.5207 9.06641ZM65.7244 11.3701C65.7244 12.5094 65.4646 13.4232 64.9451 14.1113C64.4301 14.7949 63.7329 15.1367 62.8533 15.1367C62.1059 15.1367 61.5021 14.877 61.0418 14.3574V17.8438H59.0662V7.60352H60.8982L60.9666 8.32812C61.4451 7.75391 62.0695 7.4668 62.8396 7.4668C63.7511 7.4668 64.4598 7.80404 64.9656 8.47852C65.4715 9.15299 65.7244 10.0827 65.7244 11.2676V11.3701ZM63.7488 11.2266C63.7488 10.5384 63.6258 10.0075 63.3797 9.63379C63.1382 9.26009 62.785 9.07324 62.3201 9.07324C61.7003 9.07324 61.2742 9.31022 61.0418 9.78418V12.8125C61.2833 13.3001 61.714 13.5439 62.3338 13.5439C63.2771 13.5439 63.7488 12.7715 63.7488 11.2266ZM78.8262 15H76.8438V4.5H78.8262V15ZM87.0143 15.1367C85.9296 15.1367 85.0455 14.804 84.3619 14.1387C83.6829 13.4733 83.3434 12.5869 83.3434 11.4795V11.2881C83.3434 10.5452 83.4869 9.88216 83.774 9.29883C84.0611 8.71094 84.4667 8.25977 84.9908 7.94531C85.5195 7.6263 86.121 7.4668 86.7955 7.4668C87.8072 7.4668 88.6025 7.78581 89.1813 8.42383C89.7646 9.06185 90.0563 9.96647 90.0563 11.1377V11.9443H85.3463C85.4101 12.4274 85.6015 12.8148 85.9205 13.1064C86.2441 13.3981 86.652 13.5439 87.1441 13.5439C87.9052 13.5439 88.4999 13.2682 88.9283 12.7168L89.899 13.8037C89.6028 14.223 89.2018 14.5511 88.6959 14.7881C88.19 15.0205 87.6295 15.1367 87.0143 15.1367ZM86.7887 9.06641C86.3967 9.06641 86.0777 9.19857 85.8316 9.46289C85.5901 9.72721 85.4352 10.1055 85.3668 10.5977H88.1148V10.4404C88.1057 10.0029 87.9872 9.66569 87.7594 9.42871C87.5315 9.18717 87.2079 9.06641 86.7887 9.06641ZM98.6203 15C98.5292 14.8223 98.4631 14.6012 98.4221 14.3369C97.9436 14.8701 97.3215 15.1367 96.5559 15.1367C95.8313 15.1367 95.2297 14.9271 94.7512 14.5078C94.2772 14.0885 94.0402 13.5599 94.0402 12.9219C94.0402 12.138 94.3296 11.5365 94.9084 11.1172C95.4917 10.6979 96.3326 10.486 97.4309 10.4814H98.34V10.0576C98.34 9.71582 98.2512 9.44238 98.0734 9.2373C97.9003 9.03223 97.6245 8.92969 97.2463 8.92969C96.9136 8.92969 96.6516 9.00944 96.4602 9.16895C96.2733 9.32845 96.1799 9.5472 96.1799 9.8252H94.2043C94.2043 9.39681 94.3365 9.00033 94.6008 8.63574C94.8651 8.27116 95.2388 7.98633 95.7219 7.78125C96.205 7.57161 96.7473 7.4668 97.3488 7.4668C98.2603 7.4668 98.9826 7.69694 99.5158 8.15723C100.054 8.61296 100.322 9.25553 100.322 10.085V13.291C100.327 13.9928 100.425 14.5238 100.616 14.8838V15H98.6203ZM96.9865 13.626C97.2782 13.626 97.5471 13.5622 97.7932 13.4346C98.0393 13.3024 98.2216 13.127 98.34 12.9082V11.6367H97.6018C96.6128 11.6367 96.0865 11.9785 96.0227 12.6621L96.0158 12.7783C96.0158 13.0244 96.1024 13.2272 96.2756 13.3867C96.4488 13.5462 96.6857 13.626 96.9865 13.626ZM109.146 9.45605C108.877 9.4196 108.64 9.40137 108.435 9.40137C107.688 9.40137 107.198 9.6543 106.966 10.1602V15H104.99V7.60352H106.856L106.911 8.48535C107.307 7.80632 107.857 7.4668 108.558 7.4668C108.777 7.4668 108.982 7.49642 109.174 7.55566L109.146 9.45605ZM115.072 7.60352L115.133 8.45801C115.662 7.7972 116.371 7.4668 117.259 7.4668C118.043 7.4668 118.626 7.69694 119.009 8.15723C119.392 8.61751 119.588 9.30566 119.597 10.2217V15H117.621V10.2695C117.621 9.85026 117.53 9.5472 117.348 9.36035C117.166 9.16895 116.863 9.07324 116.439 9.07324C115.883 9.07324 115.466 9.31022 115.188 9.78418V15H113.212V7.60352H115.072ZM126.336 15H124.354V7.60352H126.336V15ZM124.237 5.68945C124.237 5.39323 124.335 5.14941 124.531 4.95801C124.732 4.7666 125.003 4.6709 125.345 4.6709C125.682 4.6709 125.951 4.7666 126.151 4.95801C126.352 5.14941 126.452 5.39323 126.452 5.68945C126.452 5.99023 126.35 6.23633 126.145 6.42773C125.944 6.61914 125.677 6.71484 125.345 6.71484C125.012 6.71484 124.743 6.61914 124.538 6.42773C124.338 6.23633 124.237 5.99023 124.237 5.68945ZM132.938 7.60352L133 8.45801C133.528 7.7972 134.237 7.4668 135.126 7.4668C135.909 7.4668 136.493 7.69694 136.876 8.15723C137.258 8.61751 137.454 9.30566 137.463 10.2217V15H135.488V10.2695C135.488 9.85026 135.397 9.5472 135.214 9.36035C135.032 9.16895 134.729 9.07324 134.305 9.07324C133.749 9.07324 133.332 9.31022 133.054 9.78418V15H131.079V7.60352H132.938ZM141.83 11.2471C141.83 10.1123 142.099 9.19857 142.637 8.50586C143.179 7.81315 143.908 7.4668 144.824 7.4668C145.636 7.4668 146.267 7.74479 146.718 8.30078L146.8 7.60352H148.591V14.7539C148.591 15.401 148.443 15.9639 148.147 16.4424C147.855 16.9209 147.443 17.2855 146.909 17.5361C146.376 17.7868 145.752 17.9121 145.036 17.9121C144.494 17.9121 143.965 17.8027 143.45 17.584C142.935 17.3698 142.546 17.0918 142.281 16.75L143.156 15.5469C143.649 16.0983 144.246 16.374 144.947 16.374C145.472 16.374 145.879 16.2327 146.171 15.9502C146.463 15.6722 146.609 15.2757 146.609 14.7607V14.3643C146.153 14.8792 145.554 15.1367 144.811 15.1367C143.922 15.1367 143.202 14.7904 142.651 14.0977C142.104 13.4004 141.83 12.4775 141.83 11.3291V11.2471ZM143.806 11.3906C143.806 12.0605 143.94 12.5869 144.209 12.9697C144.478 13.348 144.847 13.5371 145.317 13.5371C145.918 13.5371 146.349 13.3115 146.609 12.8604V9.75C146.344 9.29883 145.918 9.07324 145.33 9.07324C144.856 9.07324 144.483 9.26693 144.209 9.6543C143.94 10.0417 143.806 10.6204 143.806 11.3906ZM153.368 14.0293C153.368 13.7148 153.473 13.4596 153.682 13.2637C153.897 13.0677 154.163 12.9697 154.482 12.9697C154.806 12.9697 155.072 13.0677 155.282 13.2637C155.496 13.4596 155.603 13.7148 155.603 14.0293C155.603 14.3392 155.499 14.5921 155.289 14.7881C155.079 14.9795 154.81 15.0752 154.482 15.0752C154.159 15.0752 153.892 14.9795 153.682 14.7881C153.473 14.5921 153.368 14.3392 153.368 14.0293ZM160.592 14.0293C160.592 13.7148 160.697 13.4596 160.907 13.2637C161.121 13.0677 161.387 12.9697 161.706 12.9697C162.03 12.9697 162.297 13.0677 162.506 13.2637C162.72 13.4596 162.828 13.7148 162.828 14.0293C162.828 14.3392 162.723 14.5921 162.513 14.7881C162.303 14.9795 162.035 15.0752 161.706 15.0752C161.383 15.0752 161.116 14.9795 160.907 14.7881C160.697 14.5921 160.592 14.3392 160.592 14.0293ZM167.816 14.0293C167.816 13.7148 167.921 13.4596 168.131 13.2637C168.345 13.0677 168.612 12.9697 168.931 12.9697C169.254 12.9697 169.521 13.0677 169.73 13.2637C169.945 13.4596 170.052 13.7148 170.052 14.0293C170.052 14.3392 169.947 14.5921 169.737 14.7881C169.528 14.9795 169.259 15.0752 168.931 15.0752C168.607 15.0752 168.34 14.9795 168.131 14.7881C167.921 14.5921 167.816 14.3392 167.816 14.0293Z" fill="white"/>
</svg>
