<svg width="189" height="20" viewBox="0 0 189 20" fill="none" xmlns="http://www.w3.org/2000/svg">
<circle cx="10" cy="10" r="9" fill="black" stroke="white" stroke-width="2"/>
<path d="M30.0449 15C29.9538 14.8223 29.8877 14.6012 29.8467 14.3369C29.3682 14.8701 28.7461 15.1367 27.9805 15.1367C27.2559 15.1367 26.6543 14.9271 26.1758 14.5078C25.7018 14.0885 25.4648 13.5599 25.4648 12.9219C25.4648 12.138 25.7542 11.5365 26.333 11.1172C26.9163 10.6979 27.7572 10.486 28.8555 10.4814H29.7646V10.0576C29.7646 9.71582 29.6758 9.44238 29.498 9.2373C29.3249 9.03223 29.0492 8.92969 28.6709 8.92969C28.3382 8.92969 28.0762 9.00944 27.8848 9.16895C27.6979 9.32845 27.6045 9.5472 27.6045 9.8252H25.6289C25.6289 9.39681 25.7611 9.00033 26.0254 8.63574C26.2897 8.27116 26.6634 7.98633 27.1465 7.78125C27.6296 7.57161 28.1719 7.4668 28.7734 7.4668C29.6849 7.4668 30.4072 7.69694 30.9404 8.15723C31.4782 8.61296 31.7471 9.25553 31.7471 10.085V13.291C31.7516 13.9928 31.8496 14.5238 32.041 14.8838V15H30.0449ZM28.4111 13.626C28.7028 13.626 28.9717 13.5622 29.2178 13.4346C29.4639 13.3024 29.6462 13.127 29.7646 12.9082V11.6367H29.0264C28.0374 11.6367 27.5111 11.9785 27.4473 12.6621L27.4404 12.7783C27.4404 13.0244 27.527 13.2272 27.7002 13.3867C27.8734 13.5462 28.1104 13.626 28.4111 13.626ZM38.4996 15H36.5172V4.5H38.4996V15ZM49.716 12.3135L50.6867 7.60352H52.5939L50.7072 15H49.0529L47.6516 10.3447L46.2502 15H44.6027L42.716 7.60352H44.6232L45.5871 12.3066L46.9406 7.60352H48.3693L49.716 12.3135ZM61.0145 15C60.9233 14.8223 60.8572 14.6012 60.8162 14.3369C60.3377 14.8701 59.7156 15.1367 58.95 15.1367C58.2254 15.1367 57.6238 14.9271 57.1453 14.5078C56.6714 14.0885 56.4344 13.5599 56.4344 12.9219C56.4344 12.138 56.7238 11.5365 57.3025 11.1172C57.8859 10.6979 58.7267 10.486 59.825 10.4814H60.7342V10.0576C60.7342 9.71582 60.6453 9.44238 60.4676 9.2373C60.2944 9.03223 60.0187 8.92969 59.6404 8.92969C59.3077 8.92969 59.0457 9.00944 58.8543 9.16895C58.6674 9.32845 58.574 9.5472 58.574 9.8252H56.5984C56.5984 9.39681 56.7306 9.00033 56.9949 8.63574C57.2592 8.27116 57.6329 7.98633 58.116 7.78125C58.5991 7.57161 59.1414 7.4668 59.743 7.4668C60.6544 7.4668 61.3768 7.69694 61.91 8.15723C62.4477 8.61296 62.7166 9.25553 62.7166 10.085V13.291C62.7212 13.9928 62.8191 14.5238 63.0105 14.8838V15H61.0145ZM59.3807 13.626C59.6723 13.626 59.9412 13.5622 60.1873 13.4346C60.4334 13.3024 60.6157 13.127 60.7342 12.9082V11.6367H59.9959C59.007 11.6367 58.4806 11.9785 58.4168 12.6621L58.41 12.7783C58.41 13.0244 58.4966 13.2272 58.6697 13.3867C58.8429 13.5462 59.0799 13.626 59.3807 13.626ZM70.0365 12.2041L71.4037 7.60352H73.5229L70.5492 16.1484L70.3852 16.5381C69.9431 17.5042 69.2139 17.9873 68.1977 17.9873C67.9105 17.9873 67.6189 17.944 67.3227 17.8574V16.3604L67.6234 16.3672C67.9971 16.3672 68.2751 16.3102 68.4574 16.1963C68.6443 16.0824 68.7901 15.8932 68.8949 15.6289L69.1273 15.0205L66.5365 7.60352H68.6625L70.0365 12.2041ZM81.458 12.9561C81.458 12.7145 81.3372 12.5254 81.0957 12.3887C80.8587 12.2474 80.4759 12.1221 79.9473 12.0127C78.1882 11.6436 77.3086 10.8962 77.3086 9.77051C77.3086 9.11426 77.5798 8.56738 78.1221 8.12988C78.6689 7.68783 79.3822 7.4668 80.2617 7.4668C81.2005 7.4668 81.9502 7.68783 82.5107 8.12988C83.0758 8.57194 83.3584 9.14616 83.3584 9.85254H81.3828C81.3828 9.56999 81.2917 9.33757 81.1094 9.15527C80.9271 8.96842 80.6423 8.875 80.2549 8.875C79.9222 8.875 79.6647 8.9502 79.4824 9.10059C79.3001 9.25098 79.209 9.44238 79.209 9.6748C79.209 9.89355 79.3115 10.0713 79.5166 10.208C79.7262 10.3402 80.0771 10.4564 80.5693 10.5566C81.0615 10.6523 81.4762 10.7617 81.8135 10.8848C82.8571 11.2676 83.3789 11.9307 83.3789 12.874C83.3789 13.5485 83.0895 14.0954 82.5107 14.5146C81.932 14.9294 81.1846 15.1367 80.2686 15.1367C79.6488 15.1367 79.0973 15.0273 78.6143 14.8086C78.1357 14.5853 77.7598 14.2822 77.4863 13.8994C77.2129 13.512 77.0762 13.0951 77.0762 12.6484H78.9492C78.9674 12.9993 79.0973 13.2682 79.3389 13.4551C79.5804 13.6419 79.904 13.7354 80.3096 13.7354C80.6878 13.7354 80.9727 13.6647 81.1641 13.5234C81.36 13.3776 81.458 13.1885 81.458 12.9561ZM96.5285 15H94.5461V4.5H96.5285V15ZM104.717 15.1367C103.632 15.1367 102.748 14.804 102.064 14.1387C101.385 13.4733 101.046 12.5869 101.046 11.4795V11.2881C101.046 10.5452 101.189 9.88216 101.476 9.29883C101.763 8.71094 102.169 8.25977 102.693 7.94531C103.222 7.6263 103.823 7.4668 104.498 7.4668C105.51 7.4668 106.305 7.78581 106.884 8.42383C107.467 9.06185 107.759 9.96647 107.759 11.1377V11.9443H103.049C103.112 12.4274 103.304 12.8148 103.623 13.1064C103.946 13.3981 104.354 13.5439 104.846 13.5439C105.608 13.5439 106.202 13.2682 106.631 12.7168L107.601 13.8037C107.305 14.223 106.904 14.5511 106.398 14.7881C105.892 15.0205 105.332 15.1367 104.717 15.1367ZM104.491 9.06641C104.099 9.06641 103.78 9.19857 103.534 9.46289C103.292 9.72721 103.137 10.1055 103.069 10.5977H105.817V10.4404C105.808 10.0029 105.69 9.66569 105.462 9.42871C105.234 9.18717 104.91 9.06641 104.491 9.06641ZM116.323 15C116.232 14.8223 116.165 14.6012 116.124 14.3369C115.646 14.8701 115.024 15.1367 114.258 15.1367C113.534 15.1367 112.932 14.9271 112.454 14.5078C111.98 14.0885 111.743 13.5599 111.743 12.9219C111.743 12.138 112.032 11.5365 112.611 11.1172C113.194 10.6979 114.035 10.486 115.133 10.4814H116.042V10.0576C116.042 9.71582 115.954 9.44238 115.776 9.2373C115.603 9.03223 115.327 8.92969 114.949 8.92969C114.616 8.92969 114.354 9.00944 114.162 9.16895C113.976 9.32845 113.882 9.5472 113.882 9.8252H111.907C111.907 9.39681 112.039 9.00033 112.303 8.63574C112.567 8.27116 112.941 7.98633 113.424 7.78125C113.907 7.57161 114.45 7.4668 115.051 7.4668C115.963 7.4668 116.685 7.69694 117.218 8.15723C117.756 8.61296 118.025 9.25553 118.025 10.085V13.291C118.029 13.9928 118.127 14.5238 118.319 14.8838V15H116.323ZM114.689 13.626C114.981 13.626 115.249 13.5622 115.496 13.4346C115.742 13.3024 115.924 13.127 116.042 12.9082V11.6367H115.304C114.315 11.6367 113.789 11.9785 113.725 12.6621L113.718 12.7783C113.718 13.0244 113.805 13.2272 113.978 13.3867C114.151 13.5462 114.388 13.626 114.689 13.626ZM126.849 9.45605C126.58 9.4196 126.343 9.40137 126.138 9.40137C125.39 9.40137 124.9 9.6543 124.668 10.1602V15H122.692V7.60352H124.559L124.613 8.48535C125.01 7.80632 125.559 7.4668 126.261 7.4668C126.479 7.4668 126.685 7.49642 126.876 7.55566L126.849 9.45605ZM132.774 7.60352L132.836 8.45801C133.364 7.7972 134.073 7.4668 134.962 7.4668C135.745 7.4668 136.329 7.69694 136.712 8.15723C137.094 8.61751 137.29 9.30566 137.299 10.2217V15H135.324V10.2695C135.324 9.85026 135.233 9.5472 135.05 9.36035C134.868 9.16895 134.565 9.07324 134.141 9.07324C133.585 9.07324 133.168 9.31022 132.89 9.78418V15H130.915V7.60352H132.774ZM144.038 15H142.056V7.60352H144.038V15ZM141.94 5.68945C141.94 5.39323 142.038 5.14941 142.234 4.95801C142.434 4.7666 142.705 4.6709 143.047 4.6709C143.384 4.6709 143.653 4.7666 143.854 4.95801C144.054 5.14941 144.154 5.39323 144.154 5.68945C144.154 5.99023 144.052 6.23633 143.847 6.42773C143.646 6.61914 143.38 6.71484 143.047 6.71484C142.714 6.71484 142.446 6.61914 142.24 6.42773C142.04 6.23633 141.94 5.99023 141.94 5.68945ZM150.64 7.60352L150.702 8.45801C151.231 7.7972 151.939 7.4668 152.828 7.4668C153.612 7.4668 154.195 7.69694 154.578 8.15723C154.961 8.61751 155.157 9.30566 155.166 10.2217V15H153.19V10.2695C153.19 9.85026 153.099 9.5472 152.917 9.36035C152.735 9.16895 152.431 9.07324 152.008 9.07324C151.452 9.07324 151.035 9.31022 150.757 9.78418V15H148.781V7.60352H150.64ZM159.533 11.2471C159.533 10.1123 159.802 9.19857 160.339 8.50586C160.882 7.81315 161.611 7.4668 162.527 7.4668C163.338 7.4668 163.969 7.74479 164.42 8.30078L164.502 7.60352H166.293V14.7539C166.293 15.401 166.145 15.9639 165.849 16.4424C165.557 16.9209 165.145 17.2855 164.612 17.5361C164.079 17.7868 163.454 17.9121 162.739 17.9121C162.196 17.9121 161.668 17.8027 161.153 17.584C160.638 17.3698 160.248 17.0918 159.984 16.75L160.859 15.5469C161.351 16.0983 161.948 16.374 162.65 16.374C163.174 16.374 163.582 16.2327 163.873 15.9502C164.165 15.6722 164.311 15.2757 164.311 14.7607V14.3643C163.855 14.8792 163.256 15.1367 162.513 15.1367C161.624 15.1367 160.904 14.7904 160.353 14.0977C159.806 13.4004 159.533 12.4775 159.533 11.3291V11.2471ZM161.508 11.3906C161.508 12.0605 161.643 12.5869 161.912 12.9697C162.18 13.348 162.55 13.5371 163.019 13.5371C163.621 13.5371 164.051 13.3115 164.311 12.8604V9.75C164.047 9.29883 163.621 9.07324 163.033 9.07324C162.559 9.07324 162.185 9.26693 161.912 9.6543C161.643 10.0417 161.508 10.6204 161.508 11.3906ZM171.07 14.0293C171.07 13.7148 171.175 13.4596 171.385 13.2637C171.599 13.0677 171.866 12.9697 172.185 12.9697C172.508 12.9697 172.775 13.0677 172.984 13.2637C173.199 13.4596 173.306 13.7148 173.306 14.0293C173.306 14.3392 173.201 14.5921 172.991 14.7881C172.782 14.9795 172.513 15.0752 172.185 15.0752C171.861 15.0752 171.594 14.9795 171.385 14.7881C171.175 14.5921 171.07 14.3392 171.07 14.0293ZM178.295 14.0293C178.295 13.7148 178.399 13.4596 178.609 13.2637C178.823 13.0677 179.09 12.9697 179.409 12.9697C179.732 12.9697 179.999 13.0677 180.209 13.2637C180.423 13.4596 180.53 13.7148 180.53 14.0293C180.53 14.3392 180.425 14.5921 180.215 14.7881C180.006 14.9795 179.737 15.0752 179.409 15.0752C179.085 15.0752 178.819 14.9795 178.609 14.7881C178.399 14.5921 178.295 14.3392 178.295 14.0293ZM185.519 14.0293C185.519 13.7148 185.624 13.4596 185.833 13.2637C186.047 13.0677 186.314 12.9697 186.633 12.9697C186.957 12.9697 187.223 13.0677 187.433 13.2637C187.647 13.4596 187.754 13.7148 187.754 14.0293C187.754 14.3392 187.649 14.5921 187.44 14.7881C187.23 14.9795 186.961 15.0752 186.633 15.0752C186.309 15.0752 186.043 14.9795 185.833 14.7881C185.624 14.5921 185.519 14.3392 185.519 14.0293Z" fill="white"/>
</svg>
