<svg width="2500" height="708" viewBox="0 0 2500 708" fill="none" xmlns="http://www.w3.org/2000/svg">
<path d="M2300.02 252.004C2293.95 252.004 2288.04 253.259 2282.81 256.218L2117.34 351.773C2106.64 357.945 2100.13 369.596 2100.13 381.993V572.757C2100.13 585.145 2106.64 596.78 2117.34 602.967L2160.56 627.913C2181.55 638.26 2189.29 638.098 2198.85 638.098C2229.93 638.098 2247.68 619.236 2247.68 586.458V398.15C2247.68 395.489 2245.38 393.585 2242.76 393.585H2222.04C2219.38 393.585 2217.12 395.489 2217.12 398.15V586.458C2217.12 600.985 2201.98 615.599 2177.42 603.318L2132.45 576.971C2130.86 576.107 2129.64 574.579 2129.64 572.757V381.988C2129.64 380.181 2130.85 378.341 2132.45 377.423L2297.57 282.223C2298.31 281.788 2299.16 281.558 2300.03 281.558C2300.89 281.558 2301.74 281.788 2302.48 282.223L2467.6 377.427C2469.18 378.375 2470.42 380.128 2470.42 381.998V572.762C2470.42 574.583 2469.5 576.449 2467.96 577.328L2302.48 672.532C2301.07 673.376 2299.12 673.376 2297.57 672.532L2255.06 647.239C2254.41 646.888 2253.69 646.704 2252.95 646.704C2252.22 646.704 2251.49 646.888 2250.84 647.239C2239.11 653.889 2236.9 654.661 2225.9 658.479C2223.19 659.426 2219.07 660.896 2227.3 665.51L2282.81 698.176C2288.05 701.195 2293.99 702.772 2300.03 702.746C2306.07 702.784 2312.01 701.208 2317.24 698.181L2482.71 602.972C2493.42 596.746 2499.92 585.15 2499.92 572.762V381.993C2499.92 369.6 2493.42 357.97 2482.71 351.783L2317.24 256.228C2312.05 253.264 2306.11 252.009 2300.03 252.009L2300.02 252.004Z" fill="#83CD29"/>
<path d="M2344.29 388.316C2297.17 388.316 2269.11 408.37 2269.11 441.719C2269.11 477.89 2296.96 487.832 2342.19 492.304C2396.29 497.602 2400.5 505.546 2400.5 516.196C2400.5 534.667 2385.77 542.543 2350.97 542.543C2307.24 542.543 2297.63 531.625 2294.41 509.872C2294.03 507.538 2292.23 505.654 2289.84 505.654H2268.41C2265.77 505.654 2263.49 507.929 2263.49 510.575C2263.49 538.422 2278.64 571.351 2350.97 571.351C2403.33 571.351 2433.53 550.8 2433.53 514.789C2433.53 479.096 2409.13 469.511 2358.34 462.798C2307.03 456.006 2302.13 452.681 2302.13 440.664C2302.13 430.742 2306.28 417.471 2344.29 417.471C2378.25 417.471 2390.79 424.795 2395.94 447.69C2396.38 449.839 2398.28 451.553 2400.5 451.553H2421.94C2423.25 451.553 2424.53 450.742 2425.45 449.795C2426.35 448.784 2426.98 447.646 2426.85 446.284C2423.53 406.861 2397.24 388.316 2344.29 388.316V388.316Z" fill="#83CD29"/>
<path d="M1327.24 1.87019C1325.39 1.87142 1323.57 2.35439 1321.96 3.27154C1320.37 4.20547 1319.04 5.5391 1318.12 7.14104C1317.19 8.74298 1316.7 10.558 1316.69 12.4072V281.164C1316.69 283.801 1315.47 286.164 1313.18 287.487C1312.06 288.14 1310.79 288.483 1309.49 288.483C1308.2 288.483 1306.93 288.14 1305.81 287.487L1261.89 262.194C1258.69 260.341 1255.05 259.365 1251.35 259.365C1247.65 259.365 1244.01 260.341 1240.81 262.194L1065.51 363.37C1058.95 367.154 1054.97 374.425 1054.97 381.993V584.349C1054.97 591.908 1058.96 598.831 1065.51 602.615L1240.81 703.796C1244.01 705.654 1247.65 706.633 1251.35 706.633C1255.05 706.633 1258.69 705.654 1261.89 703.796L1437.2 602.615C1440.41 600.768 1443.07 598.106 1444.92 594.899C1446.77 591.692 1447.74 588.052 1447.74 584.349V79.8625C1447.73 76.0725 1446.72 72.3517 1444.81 69.0799C1442.9 65.8082 1440.15 63.1027 1436.85 61.2397L1332.5 2.91998C1330.87 2.00691 1329.05 1.84577 1327.24 1.87019V1.87019ZM199.514 254.465C196.174 254.597 193.03 255.183 190.032 256.921L14.7214 358.102C11.5101 359.946 8.84387 362.608 6.99331 365.816C5.14274 369.024 4.17367 372.664 4.18441 376.368L4.53597 647.942C4.53597 651.717 6.48419 655.227 9.80447 657.073C11.3963 658.029 13.2183 658.535 15.0754 658.535C16.9325 658.535 18.7545 658.029 20.3463 657.073L124.334 597.352C130.921 593.436 135.223 586.629 135.223 579.081V452.256C135.223 444.688 139.202 437.744 145.765 433.985L190.027 408.34C193.227 406.48 196.867 405.508 200.569 405.528C204.182 405.528 207.893 406.431 211.106 408.34L255.373 433.985C258.587 435.828 261.256 438.489 263.108 441.699C264.959 444.908 265.928 448.551 265.915 452.256V579.076C265.915 586.624 270.261 593.48 276.803 597.347L380.792 657.073C382.383 658.029 384.205 658.535 386.063 658.535C387.92 658.535 389.742 658.029 391.333 657.073C392.936 656.146 394.266 654.814 395.192 653.21C396.117 651.607 396.605 649.789 396.607 647.937L396.949 376.368C396.969 372.663 396.005 369.018 394.153 365.808C392.301 362.598 389.63 359.939 386.412 358.102L211.106 256.921C208.142 255.183 204.988 254.602 201.624 254.465H199.514ZM1774.81 256.921C1771.15 256.921 1767.56 257.849 1764.27 259.734L1588.97 360.914C1585.76 362.761 1583.09 365.422 1581.24 368.63C1579.39 371.837 1578.42 375.477 1578.42 379.18V581.537C1578.42 589.149 1582.71 596.043 1589.31 599.808L1763.22 698.879C1769.64 702.541 1777.48 702.819 1783.94 699.221L1889.34 640.555C1892.68 638.699 1894.94 635.232 1894.96 631.424C1894.98 629.569 1894.5 627.744 1893.57 626.137C1892.65 624.53 1891.31 623.201 1889.69 622.288L1713.33 521.108C1710.03 519.223 1707.71 515.409 1707.71 511.62V448.389C1707.71 444.605 1710.05 441.138 1713.33 439.253L1768.13 407.632C1769.74 406.705 1771.55 406.217 1773.41 406.217C1775.26 406.217 1777.07 406.705 1778.68 407.632L1833.48 439.253C1835.08 440.175 1836.41 441.506 1837.34 443.109C1838.27 444.713 1838.75 446.532 1838.75 448.384V498.271C1838.74 500.122 1839.23 501.942 1840.15 503.546C1841.08 505.149 1842.41 506.479 1844.02 507.402C1847.3 509.301 1851.28 509.306 1854.55 507.402L1959.6 446.284C1962.81 444.43 1965.47 441.766 1967.32 438.559C1969.17 435.352 1970.14 431.715 1970.14 428.013V379.185C1970.14 371.641 1966.14 364.703 1959.6 360.914L1785.35 259.734C1782.15 257.881 1778.51 256.912 1774.81 256.926V256.921ZM1250.65 407.989C1251.56 407.989 1252.64 408.213 1253.46 408.687L1313.54 443.467C1315.17 444.409 1316.35 446.152 1316.35 448.032V517.592C1316.35 519.482 1315.18 521.22 1313.54 522.162L1253.46 556.942C1252.66 557.4 1251.75 557.641 1250.82 557.641C1249.9 557.641 1248.99 557.4 1248.19 556.942L1188.12 522.162C1186.48 521.215 1185.3 519.482 1185.3 517.592V448.032C1185.3 446.148 1186.49 444.419 1188.12 443.467L1248.19 408.692C1248.93 408.233 1249.78 407.991 1250.65 407.994V407.989H1250.65Z" fill="white"/>
<path d="M726.135 255.866C722.482 255.866 718.869 256.794 715.598 258.679L540.292 359.508C533.734 363.282 529.75 370.567 529.75 378.126V580.482C529.75 588.05 533.739 594.964 540.292 598.753L715.598 699.929C718.799 701.788 722.435 702.768 726.137 702.768C729.839 702.768 733.475 701.788 736.676 699.929L911.982 598.753C915.191 596.905 917.856 594.242 919.706 591.034C921.556 587.825 922.527 584.185 922.519 580.482V378.126C922.519 370.557 918.535 363.282 911.982 359.508L736.676 258.679C733.472 256.828 729.835 255.858 726.135 255.866V255.866ZM1774.46 436.445C1773.76 436.445 1772.98 436.445 1772.35 436.797L1738.63 456.47C1738 456.819 1737.47 457.328 1737.1 457.945C1736.73 458.562 1736.53 459.266 1736.52 459.985V498.627C1736.52 500.082 1737.36 501.415 1738.63 502.143L1772.35 521.464C1773.62 522.196 1774.97 522.196 1776.22 521.464L1809.94 502.138C1810.57 501.787 1811.09 501.278 1811.46 500.662C1811.83 500.047 1812.03 499.345 1812.05 498.627V459.98C1812.03 459.262 1811.83 458.561 1811.46 457.945C1811.09 457.329 1810.57 456.821 1809.94 456.47L1776.22 436.792C1775.59 436.426 1775.16 436.45 1774.46 436.45V436.445Z" fill="#83CD29"/>
</svg>
