<svg width="307" height="110" viewBox="0 0 307 110" fill="none" xmlns="http://www.w3.org/2000/svg">
<path d="M206.519 0.290567C206.231 0.290758 205.947 0.365796 205.697 0.508291C205.45 0.653393 205.243 0.860595 205.099 1.10948C204.955 1.35837 204.879 1.64037 204.877 1.92767V43.6837C204.877 44.0934 204.687 44.4605 204.331 44.6661C204.157 44.7675 203.959 44.8208 203.757 44.8208C203.556 44.8208 203.358 44.7675 203.184 44.6661L196.35 40.7364C195.852 40.4485 195.286 40.2968 194.71 40.2968C194.134 40.2968 193.568 40.4485 193.07 40.7364L165.793 56.4558C164.773 57.0437 164.153 58.1734 164.153 59.3492V90.7887C164.153 91.9631 164.774 93.0387 165.793 93.6266L193.07 109.347C193.568 109.636 194.134 109.788 194.71 109.788C195.286 109.788 195.852 109.636 196.35 109.347L223.628 93.6266C224.128 93.3397 224.542 92.9261 224.83 92.4278C225.117 91.9296 225.268 91.364 225.268 90.7887V12.408C225.267 11.8192 225.11 11.2411 224.812 10.7328C224.515 10.2244 224.087 9.80409 223.574 9.51464L207.337 0.45367C207.083 0.311809 206.8 0.286773 206.519 0.290567ZM31.0444 39.5355C30.5247 39.556 30.0355 39.6471 29.569 39.9171L2.29063 55.6373C1.79095 55.9238 1.37609 56.3374 1.08814 56.8358C0.800192 57.3342 0.649405 57.8998 0.651076 58.4753L0.705779 100.669C0.705779 101.255 1.00892 101.801 1.52556 102.088C1.77325 102.236 2.05675 102.315 2.34571 102.315C2.63468 102.315 2.91818 102.236 3.16587 102.088L19.3464 92.8089C20.3713 92.2005 21.0407 91.1429 21.0407 89.9702V70.2658C21.0407 69.09 21.6598 68.0111 22.681 67.427L29.5682 63.4427C30.0661 63.1537 30.6325 63.0027 31.2085 63.0058C31.7707 63.0058 32.3481 63.1461 32.8481 63.4427L39.736 67.427C40.2361 67.7134 40.6514 68.1268 40.9396 68.6256C41.2276 69.1241 41.3784 69.6901 41.3764 70.2658V89.9694C41.3764 91.1421 42.0526 92.2073 43.0705 92.8082L59.2512 102.088C59.4988 102.236 59.7823 102.315 60.0714 102.315C60.3603 102.315 60.6438 102.236 60.8914 102.088C61.1408 101.944 61.3478 101.737 61.4919 101.487C61.6358 101.238 61.7117 100.956 61.712 100.668L61.7653 58.4753C61.7684 57.8996 61.6184 57.3333 61.3302 56.8346C61.042 56.3359 60.6264 55.9227 60.1257 55.6373L32.8481 39.9171C32.3869 39.6471 31.8961 39.5568 31.3727 39.5355H31.0444ZM276.16 39.9171C275.591 39.9171 275.032 40.0613 274.52 40.3542L247.244 56.0742C246.744 56.3612 246.329 56.7746 246.041 57.273C245.753 57.7713 245.602 58.3368 245.602 58.9122V90.3518C245.602 91.5345 246.27 92.6056 247.297 93.1905L274.357 108.583C275.356 109.152 276.576 109.195 277.581 108.636L293.981 99.5213C294.501 99.2329 294.853 98.6942 294.856 98.1026C294.859 97.8144 294.784 97.5309 294.639 97.2812C294.496 97.0315 294.288 96.825 294.036 96.6832L266.594 80.9631C266.081 80.6702 265.72 80.0777 265.72 79.489V69.665C265.72 69.0771 266.084 68.5384 266.594 68.2455L275.121 63.3327C275.372 63.1886 275.653 63.1128 275.943 63.1128C276.23 63.1128 276.512 63.1886 276.763 63.3327L285.289 68.2455C285.538 68.3888 285.745 68.5956 285.89 68.8446C286.035 69.0938 286.109 69.3764 286.109 69.6642V77.415C286.108 77.7026 286.184 77.9853 286.327 78.2346C286.472 78.4836 286.679 78.6902 286.93 78.8336C287.44 79.1287 288.059 79.1295 288.568 78.8336L304.914 69.3379C305.413 69.0499 305.827 68.636 306.115 68.1377C306.403 67.6394 306.554 67.0744 306.554 66.4992V58.9129C306.554 57.7408 305.931 56.6629 304.914 56.0742L277.8 40.3542C277.303 40.0663 276.736 39.9149 276.16 39.9171ZM194.601 63.3881C194.743 63.3881 194.911 63.4229 195.038 63.4966L204.387 68.9002C204.64 69.0466 204.824 69.3174 204.824 69.6095V80.4168C204.824 80.7105 204.642 80.9805 204.387 81.1269L195.038 86.5305C194.914 86.6017 194.772 86.6391 194.628 86.6391C194.484 86.6391 194.343 86.6017 194.218 86.5305L184.871 81.1269C184.616 80.9797 184.433 80.7105 184.433 80.4168V69.6095C184.433 69.3168 184.618 69.0482 184.871 68.9002L194.218 63.4973C194.333 63.426 194.466 63.3877 194.601 63.3881Z" fill="white"/>
<path d="M112.987 39.7532C112.418 39.7532 111.856 39.8974 111.347 40.1902L84.0694 55.8558C83.049 56.4421 82.4291 57.574 82.4291 58.7484V90.1879C82.4291 91.3637 83.0498 92.4379 84.0694 93.0266L111.347 108.746C111.845 109.035 112.411 109.187 112.987 109.187C113.563 109.187 114.129 109.035 114.627 108.746L141.904 93.0266C142.404 92.7395 142.818 92.3257 143.106 91.8273C143.394 91.3287 143.545 90.7632 143.544 90.1879V58.7484C143.544 57.5724 142.924 56.4421 141.904 55.8558L114.627 40.1902C114.128 39.9026 113.562 39.7519 112.987 39.7532ZM276.106 67.8092C275.997 67.8092 275.876 67.8092 275.778 67.8639L270.531 70.9205C270.433 70.9747 270.35 71.0538 270.293 71.1496C270.235 71.2455 270.204 71.3549 270.203 71.4666V77.4703C270.203 77.6964 270.333 77.9035 270.531 78.0166L275.778 81.0184C275.975 81.1321 276.185 81.1321 276.38 81.0184L281.627 78.0158C281.725 77.9613 281.806 77.8822 281.863 77.7865C281.921 77.6909 281.952 77.5819 281.955 77.4703V71.4658C281.952 71.3543 281.921 71.2454 281.863 71.1496C281.806 71.0539 281.725 70.975 281.627 70.9205L276.38 67.8632C276.282 67.8063 276.215 67.81 276.106 67.81V67.8092Z" fill="#83CD29"/>
</svg>
