<svg width="1207" height="360" viewBox="0 0 1207 360" fill="none" xmlns="http://www.w3.org/2000/svg">
<path d="M314.089 124.485C310.331 123.196 306.541 122.002 302.723 120.904C303.357 118.332 303.942 115.747 304.48 113.153C313.082 71.3923 307.458 37.7499 288.249 26.6754C269.833 16.054 239.712 27.1285 209.291 53.6008C206.294 56.2153 203.363 58.9051 200.501 61.6677C198.585 59.8307 196.634 58.0295 194.651 56.2648C162.77 27.9566 130.813 16.029 111.625 27.1363C93.2258 37.7874 87.7761 69.4158 95.5211 108.992C96.2916 112.912 97.1617 116.811 98.1303 120.686C93.6086 121.97 89.2416 123.339 85.0637 124.795C47.6871 137.825 23.8162 158.25 23.8162 179.433C23.8162 201.313 49.4402 223.259 88.3729 236.565C91.5298 237.639 94.7129 238.634 97.9194 239.549C96.8777 243.724 95.9529 247.927 95.1461 252.153C87.762 291.042 93.529 321.921 111.88 332.506C130.834 343.436 162.645 332.202 193.622 305.125C196.07 302.984 198.528 300.714 200.989 298.334C204.088 301.325 207.271 304.229 210.532 307.042C240.537 332.861 270.17 343.287 288.505 332.674C307.442 321.712 313.595 288.539 305.605 248.18C304.995 245.098 304.284 241.949 303.487 238.743C305.722 238.084 307.914 237.403 310.053 236.693C350.526 223.284 376.858 201.606 376.858 179.433C376.858 158.173 352.218 137.611 314.089 124.485V124.485Z" fill="#53C1DE"/>
<path d="M305.309 222.378C303.379 223.017 301.398 223.634 299.38 224.233C294.911 210.088 288.88 195.047 281.502 179.508C288.544 164.337 294.341 149.489 298.684 135.435C302.295 136.482 305.801 137.583 309.179 138.747C341.85 149.992 361.777 166.621 361.777 179.433C361.777 193.081 340.254 210.799 305.311 222.378H305.309ZM290.81 251.11C294.342 268.956 294.847 285.091 292.506 297.705C290.403 309.039 286.175 316.595 280.948 319.621C269.821 326.061 246.027 317.69 220.369 295.609C217.427 293.078 214.463 290.375 211.491 287.516C221.439 276.635 231.381 263.986 241.084 249.94C258.152 248.426 274.276 245.949 288.899 242.57C289.617 245.476 290.258 248.324 290.81 251.11ZM144.175 318.509C133.305 322.347 124.648 322.457 119.415 319.44C108.278 313.018 103.65 288.222 109.964 254.966C110.715 251.036 111.575 247.127 112.542 243.245C127.002 246.443 143.01 248.744 160.118 250.132C169.885 263.876 180.114 276.51 190.423 287.574C188.232 289.693 185.99 291.758 183.697 293.767C169.999 305.742 156.273 314.235 144.177 318.509H144.175ZM93.2508 222.294C76.0359 216.41 61.8193 208.763 52.0744 200.42C43.3185 192.92 38.8968 185.475 38.8968 179.433C38.8968 166.579 58.0632 150.181 90.029 139.036C94.0412 137.644 98.0933 136.369 102.18 135.213C106.599 149.583 112.394 164.607 119.387 179.8C112.303 195.22 106.425 210.483 101.966 225.022C99.039 224.184 96.133 223.274 93.2508 222.294ZM110.322 106.096C103.686 72.1861 108.092 46.6074 119.181 40.189C130.993 33.3518 157.109 43.1013 184.636 67.5425C186.395 69.1049 188.162 70.7408 189.933 72.4329C179.677 83.4465 169.541 95.9851 159.859 109.65C143.255 111.189 127.36 113.661 112.748 116.972C111.848 113.367 111.039 109.74 110.322 106.094V106.096ZM262.608 143.699C259.156 137.737 255.577 131.851 251.872 126.043C263.137 127.465 273.929 129.356 284.063 131.67C281.021 141.421 277.229 151.617 272.764 162.07C269.501 155.879 266.115 149.754 262.608 143.699ZM200.506 83.2106C207.462 90.7462 214.428 99.1615 221.281 108.291C207.38 107.634 193.456 107.631 179.555 108.281C186.414 99.2365 193.44 90.8337 200.506 83.2106ZM138.005 143.802C134.542 149.809 131.219 155.896 128.04 162.059C123.648 151.642 119.89 141.4 116.822 131.51C126.895 129.256 137.636 127.413 148.828 126.015C145.082 131.858 141.473 137.789 138.005 143.802ZM149.15 233.928C137.588 232.637 126.684 230.889 116.614 228.697C119.731 218.631 123.571 208.169 128.057 197.529C131.25 203.696 134.587 209.787 138.066 215.797C141.616 221.928 145.312 227.973 149.15 233.928ZM200.923 276.721C193.775 269.007 186.645 260.477 179.682 251.3C186.441 251.566 193.332 251.7 200.337 251.7C207.533 251.7 214.647 251.539 221.648 251.227C214.774 260.57 207.832 269.114 200.923 276.721ZM272.907 196.987C277.626 207.743 281.604 218.149 284.763 228.044C274.526 230.379 263.475 232.261 251.83 233.657C255.562 227.742 259.175 221.752 262.669 215.693C266.22 209.534 269.634 203.297 272.907 196.987ZM249.604 208.158C244.256 217.449 238.607 226.562 232.667 235.485C222.192 236.234 211.368 236.62 200.337 236.62C189.351 236.62 178.664 236.278 168.373 235.61C162.278 226.708 156.523 217.579 151.119 208.241C145.74 198.953 140.716 189.465 136.057 179.796C140.704 170.124 145.713 160.63 151.073 151.334V151.337C156.432 142.04 162.142 132.949 168.191 124.085C178.691 123.292 189.456 122.876 200.338 122.876C211.269 122.876 222.048 123.295 232.545 124.095C238.533 132.945 244.206 142.004 249.555 151.255C254.934 160.529 260.01 169.977 264.775 179.582C260.059 189.284 254.999 198.816 249.605 208.158H249.604ZM280.716 39.7405C292.538 46.559 297.136 74.0532 289.708 110.109C289.221 112.458 288.692 114.798 288.121 117.128C273.474 113.748 257.569 111.233 240.916 109.67C231.215 95.8569 221.164 83.2965 211.074 72.4251C213.718 69.8761 216.425 67.3931 219.192 64.9786C245.257 42.2951 269.617 33.3393 280.716 39.7405Z" fill="#192734"/>
<path d="M200.337 147.908C217.749 147.908 231.862 162.023 231.862 179.433C231.862 196.845 217.749 210.96 200.337 210.96C182.927 210.96 168.812 196.845 168.812 179.433C168.812 162.023 182.927 147.908 200.337 147.908" fill="#53C1DE"/>
<path d="M433.6 113.8C454.4 113.8 470.333 117.533 481.4 125C492.467 132.333 498 143.8 498 159.4C498 169.133 495.733 177.067 491.2 183.2C486.8 189.2 480.4 193.933 472 197.4C474.8 200.867 477.733 204.867 480.8 209.4C483.867 213.8 486.867 218.467 489.8 223.4C492.867 228.2 495.8 233.267 498.6 238.6C501.4 243.8 504 248.933 506.4 254H471.4C468.867 249.467 466.267 244.867 463.6 240.2C461.067 235.533 458.4 231 455.6 226.6C452.933 222.2 450.267 218.067 447.6 214.2C444.933 210.2 442.267 206.6 439.6 203.4H424.2V254H393V117.4C399.8 116.067 406.8 115.133 414 114.6C421.333 114.067 427.867 113.8 433.6 113.8ZM435.4 140.4C433.133 140.4 431.067 140.467 429.2 140.6C427.467 140.733 425.8 140.867 424.2 141V178.6H433C444.733 178.6 453.133 177.133 458.2 174.2C463.267 171.267 465.8 166.267 465.8 159.2C465.8 152.4 463.2 147.6 458 144.8C452.933 141.867 445.4 140.4 435.4 140.4ZM514.32 202.2C514.32 192.867 515.72 184.733 518.52 177.8C521.454 170.733 525.254 164.867 529.92 160.2C534.587 155.533 539.92 152 545.92 149.6C552.054 147.2 558.32 146 564.72 146C579.654 146 591.454 150.6 600.12 159.8C608.787 168.867 613.12 182.267 613.12 200C613.12 201.733 613.054 203.667 612.92 205.8C612.787 207.8 612.654 209.6 612.52 211.2H544.92C545.587 217.333 548.454 222.2 553.52 225.8C558.587 229.4 565.387 231.2 573.92 231.2C579.387 231.2 584.72 230.733 589.92 229.8C595.254 228.733 599.587 227.467 602.92 226L606.92 250.2C605.32 251 603.187 251.8 600.52 252.6C597.854 253.4 594.854 254.067 591.52 254.6C588.32 255.267 584.854 255.8 581.12 256.2C577.387 256.6 573.654 256.8 569.92 256.8C560.454 256.8 552.187 255.4 545.12 252.6C538.187 249.8 532.387 246 527.72 241.2C523.187 236.267 519.787 230.467 517.52 223.8C515.387 217.133 514.32 209.933 514.32 202.2ZM584.32 190.8C584.187 188.267 583.72 185.8 582.92 183.4C582.254 181 581.12 178.867 579.52 177C578.054 175.133 576.12 173.6 573.72 172.4C571.454 171.2 568.587 170.6 565.12 170.6C561.787 170.6 558.92 171.2 556.52 172.4C554.12 173.467 552.12 174.933 550.52 176.8C548.92 178.667 547.654 180.867 546.72 183.4C545.92 185.8 545.32 188.267 544.92 190.8H584.32ZM676.317 233.2C679.251 233.2 682.051 233.133 684.717 233C687.384 232.867 689.517 232.667 691.117 232.4V209.8C689.917 209.533 688.117 209.267 685.717 209C683.317 208.733 681.117 208.6 679.117 208.6C676.317 208.6 673.651 208.8 671.117 209.2C668.717 209.467 666.584 210.067 664.717 211C662.851 211.933 661.384 213.2 660.317 214.8C659.251 216.4 658.717 218.4 658.717 220.8C658.717 225.467 660.251 228.733 663.317 230.6C666.517 232.333 670.851 233.2 676.317 233.2ZM673.917 146C682.717 146 690.051 147 695.917 149C701.784 151 706.451 153.867 709.917 157.6C713.517 161.333 716.051 165.867 717.517 171.2C718.984 176.533 719.717 182.467 719.717 189V251C715.451 251.933 709.517 253 701.917 254.2C694.317 255.533 685.117 256.2 674.317 256.2C667.517 256.2 661.317 255.6 655.717 254.4C650.251 253.2 645.517 251.267 641.517 248.6C637.517 245.8 634.451 242.2 632.317 237.8C630.184 233.4 629.117 228 629.117 221.6C629.117 215.467 630.317 210.267 632.717 206C635.251 201.733 638.584 198.333 642.717 195.8C646.851 193.267 651.584 191.467 656.917 190.4C662.251 189.2 667.784 188.6 673.517 188.6C677.384 188.6 680.784 188.8 683.717 189.2C686.784 189.467 689.251 189.867 691.117 190.4V187.6C691.117 182.533 689.584 178.467 686.517 175.4C683.451 172.333 678.117 170.8 670.517 170.8C665.451 170.8 660.451 171.2 655.517 172C650.584 172.667 646.317 173.667 642.717 175L638.917 151C640.651 150.467 642.784 149.933 645.317 149.4C647.984 148.733 650.851 148.2 653.917 147.8C656.984 147.267 660.184 146.867 663.517 146.6C666.984 146.2 670.451 146 673.917 146ZM741.664 201.4C741.664 193.8 742.864 186.667 745.264 180C747.797 173.2 751.397 167.333 756.064 162.4C760.731 157.333 766.397 153.333 773.064 150.4C779.731 147.467 787.331 146 795.864 146C801.464 146 806.597 146.533 811.264 147.6C815.931 148.533 820.464 149.933 824.864 151.8L818.664 175.6C815.864 174.533 812.797 173.6 809.464 172.8C806.131 172 802.397 171.6 798.264 171.6C789.464 171.6 782.864 174.333 778.464 179.8C774.197 185.267 772.064 192.467 772.064 201.4C772.064 210.867 774.064 218.2 778.064 223.4C782.197 228.6 789.331 231.2 799.464 231.2C803.064 231.2 806.931 230.867 811.064 230.2C815.197 229.533 818.997 228.467 822.464 227L826.664 251.4C823.197 252.867 818.864 254.133 813.664 255.2C808.464 256.267 802.731 256.8 796.464 256.8C786.864 256.8 778.597 255.4 771.664 252.6C764.731 249.667 758.997 245.733 754.464 240.8C750.064 235.867 746.797 230.067 744.664 223.4C742.664 216.6 741.664 209.267 741.664 201.4ZM845.664 122.6L875.464 117.8V148.8H911.264V173.6H875.464V210.6C875.464 216.867 876.531 221.867 878.664 225.6C880.931 229.333 885.397 231.2 892.064 231.2C895.264 231.2 898.531 230.933 901.864 230.4C905.331 229.733 908.464 228.867 911.264 227.8L915.464 251C911.864 252.467 907.864 253.733 903.464 254.8C899.064 255.867 893.664 256.4 887.264 256.4C879.131 256.4 872.397 255.333 867.064 253.2C861.731 250.933 857.464 247.867 854.264 244C851.064 240 848.797 235.2 847.464 229.6C846.264 224 845.664 217.8 845.664 211V122.6ZM924.578 180.8H982.578V207.8H924.578V180.8ZM1076.42 207.4C1076.42 214.2 1075.62 220.6 1074.02 226.6C1072.55 232.6 1069.88 237.867 1066.02 242.4C1062.28 246.8 1057.15 250.333 1050.62 253C1044.22 255.533 1036.08 256.8 1026.22 256.8C1017.15 256.8 1009.35 255.733 1002.82 253.6C996.284 251.333 990.884 248.733 986.617 245.8L997.017 221.6C1000.88 223.867 1005.02 225.867 1009.42 227.6C1013.82 229.333 1018.62 230.2 1023.82 230.2C1031.42 230.2 1036.88 228.333 1040.22 224.6C1043.55 220.867 1045.22 214.6 1045.22 205.8V115.4H1076.42V207.4ZM1144.28 230.2C1148.68 230.2 1152.28 229.867 1155.08 229.2C1158.01 228.4 1160.34 227.4 1162.08 226.2C1163.81 224.867 1165.01 223.333 1165.68 221.6C1166.34 219.867 1166.68 217.933 1166.68 215.8C1166.68 211.267 1164.54 207.533 1160.28 204.6C1156.01 201.533 1148.68 198.267 1138.28 194.8C1133.74 193.2 1129.21 191.4 1124.68 189.4C1120.14 187.267 1116.08 184.667 1112.48 181.6C1108.88 178.4 1105.94 174.6 1103.68 170.2C1101.41 165.667 1100.28 160.2 1100.28 153.8C1100.28 147.4 1101.48 141.667 1103.88 136.6C1106.28 131.4 1109.68 127 1114.08 123.4C1118.48 119.8 1123.81 117.067 1130.08 115.2C1136.34 113.2 1143.41 112.2 1151.28 112.2C1160.61 112.2 1168.68 113.2 1175.48 115.2C1182.28 117.2 1187.88 119.4 1192.28 121.8L1183.28 146.4C1179.41 144.4 1175.08 142.667 1170.28 141.2C1165.61 139.6 1159.94 138.8 1153.28 138.8C1145.81 138.8 1140.41 139.867 1137.08 142C1133.88 144 1132.28 147.133 1132.28 151.4C1132.28 153.933 1132.88 156.067 1134.08 157.8C1135.28 159.533 1136.94 161.133 1139.08 162.6C1141.34 163.933 1143.88 165.2 1146.68 166.4C1149.61 167.467 1152.81 168.6 1156.28 169.8C1163.48 172.467 1169.74 175.133 1175.08 177.8C1180.41 180.333 1184.81 183.333 1188.28 186.8C1191.88 190.267 1194.54 194.333 1196.28 199C1198.01 203.667 1198.88 209.333 1198.88 216C1198.88 228.933 1194.34 239 1185.28 246.2C1176.21 253.267 1162.54 256.8 1144.28 256.8C1138.14 256.8 1132.61 256.4 1127.68 255.6C1122.74 254.933 1118.34 254.067 1114.48 253C1110.74 251.933 1107.48 250.8 1104.68 249.6C1102.01 248.4 1099.74 247.267 1097.88 246.2L1106.68 221.4C1110.81 223.667 1115.88 225.733 1121.88 227.6C1128.01 229.333 1135.48 230.2 1144.28 230.2Z" fill="#53C1DE"/>
</svg>
