<svg width="1472" height="1322" viewBox="0 0 1472 1322" fill="none" xmlns="http://www.w3.org/2000/svg">
<path d="M1155.85 457.952C1142.02 453.211 1128.07 448.818 1114.02 444.778C1116.35 435.314 1118.51 425.807 1120.48 416.263C1152.14 262.635 1131.44 138.873 1060.76 98.1327C992.984 59.0589 882.14 99.7995 770.192 197.185C759.161 206.803 748.375 216.698 737.844 226.861C730.792 220.103 723.615 213.477 716.317 206.985C598.993 102.846 481.393 58.967 410.78 99.8283C343.071 139.011 323.016 255.364 351.517 400.957C354.353 415.375 357.555 429.718 361.119 443.974C344.48 448.698 328.409 453.733 313.034 459.09C175.488 507.027 87.6436 582.163 87.6436 660.092C87.6436 740.584 181.94 821.318 325.212 870.267C336.83 874.218 348.543 877.878 360.343 881.245C356.51 896.603 353.107 912.065 350.137 927.613C322.964 1070.68 344.186 1184.27 411.717 1223.21C481.468 1263.42 598.533 1222.09 712.528 1122.48C721.537 1114.61 730.582 1106.26 739.638 1097.5C751.044 1108.5 762.755 1119.18 774.757 1129.53C885.176 1224.52 994.226 1262.87 1061.7 1223.83C1131.39 1183.5 1154.03 1061.47 1124.62 912.996C1122.38 901.656 1119.77 890.074 1116.83 878.279C1125.06 875.854 1133.12 873.348 1140.99 870.738C1289.94 821.41 1386.84 741.659 1386.84 660.092C1386.84 581.881 1296.16 506.24 1155.85 457.952Z" fill="#53C1DE"/>
<path d="M1123.54 818.077C1116.44 820.428 1109.15 822.698 1101.72 824.899C1085.27 772.864 1063.08 717.53 1035.93 660.368C1061.84 604.556 1083.17 549.935 1099.16 498.233C1112.45 502.084 1125.35 506.136 1137.78 510.419C1258.01 551.786 1331.34 612.96 1331.34 660.092C1331.34 710.299 1252.14 775.48 1123.54 818.077H1123.54ZM1070.18 923.773C1083.18 989.425 1085.04 1048.78 1076.42 1095.19C1068.68 1136.88 1053.13 1164.68 1033.89 1175.81C992.943 1199.5 905.38 1168.71 810.958 1087.48C800.131 1078.17 789.223 1068.22 778.287 1057.7C814.896 1017.68 851.482 971.141 887.188 919.468C949.998 913.899 1009.34 904.788 1063.15 892.356C1065.79 903.047 1068.15 913.525 1070.18 923.773ZM530.565 1171.72C490.564 1185.84 458.704 1186.24 439.448 1175.14C398.464 1151.52 381.433 1060.3 404.668 937.959C407.431 923.501 410.595 909.122 414.155 894.839C467.369 906.605 526.276 915.071 589.235 920.175C625.177 970.739 662.821 1017.22 700.758 1057.92C692.695 1065.71 684.442 1073.31 676.005 1080.7C625.597 1124.75 575.085 1156 530.571 1171.72H530.565ZM343.163 817.766C279.812 796.12 227.495 767.99 191.634 737.297C159.412 709.707 143.14 682.319 143.14 660.092C143.14 612.805 213.673 552.481 331.307 511.482C346.072 506.358 360.983 501.668 376.023 497.417C392.283 550.28 413.609 605.551 439.345 661.443C413.275 718.168 391.645 774.318 375.235 827.802C364.464 824.72 353.77 821.374 343.163 817.766ZM405.985 390.3C381.566 265.555 397.78 171.458 438.586 147.846C482.054 122.693 578.161 158.56 679.461 248.473C685.935 254.221 692.438 260.239 698.952 266.464C661.211 306.98 623.912 353.106 588.281 403.377C527.178 409.038 468.686 418.131 414.914 430.311C411.602 417.049 408.624 403.706 405.985 390.295V390.3ZM966.397 528.633C953.696 506.702 940.524 485.047 926.89 463.683C968.346 468.913 1008.06 475.868 1045.35 484.381C1034.16 520.253 1020.2 557.763 1003.77 596.216C991.764 573.442 979.303 550.91 966.397 528.633ZM737.861 306.112C763.459 333.834 789.097 364.792 814.316 398.376C763.16 395.96 711.919 395.948 660.762 398.342C686.004 365.067 711.86 334.156 737.861 306.112ZM507.859 529.013C495.114 551.112 482.887 573.506 471.187 596.176C455.024 557.855 441.196 520.178 429.904 483.795C466.972 475.5 506.502 468.724 547.688 463.579C533.901 485.076 520.621 506.893 507.859 529.013ZM548.872 860.565C506.324 855.817 466.196 849.385 429.139 841.321C440.61 804.293 454.743 765.806 471.25 726.663C482.999 749.35 495.28 771.757 508.083 793.867C521.147 816.42 534.748 838.659 548.872 860.565ZM739.396 1017.99C713.091 989.615 686.855 958.232 661.228 924.475C686.102 925.452 711.464 925.946 737.24 925.946C763.723 925.946 789.902 925.354 815.667 924.205C790.368 958.577 764.821 990.006 739.396 1017.99ZM1004.3 724.669C1021.66 764.237 1036.3 802.517 1047.93 838.918C1010.26 847.511 969.588 854.432 926.735 859.57C940.467 837.807 953.765 815.773 966.621 793.482C979.689 770.826 992.252 747.883 1004.3 724.669ZM918.541 765.766C898.861 799.942 878.074 833.47 856.214 866.295C817.668 869.048 777.833 870.468 737.24 870.468C696.813 870.468 657.485 869.209 619.611 866.755C597.184 834.006 576.004 800.42 556.117 766.07C536.322 731.903 517.833 696.996 500.689 661.425C517.79 625.844 536.223 590.919 555.95 556.723V556.734C575.671 522.531 596.684 489.089 618.944 456.481C657.583 453.561 697.199 452.032 737.246 452.032C777.471 452.032 817.139 453.573 855.766 456.515C877.801 489.074 898.679 522.399 918.363 556.43C938.158 590.55 956.837 625.304 974.371 660.638C957.018 696.332 938.398 731.397 918.547 765.766H918.541ZM1033.04 146.196C1076.54 171.279 1093.46 272.424 1066.13 405.067C1064.33 413.707 1062.39 422.315 1060.28 430.886C1006.39 418.453 947.854 409.199 886.573 403.451C850.872 352.635 813.884 306.428 776.752 266.435C786.482 257.057 796.444 247.923 806.628 239.041C902.546 155.594 992.19 122.647 1033.04 146.196Z" fill="white"/>
<path d="M737.24 544.118C801.315 544.118 853.253 596.044 853.253 660.092C853.253 724.146 801.315 776.072 737.24 776.072C673.17 776.072 621.227 724.146 621.227 660.092C621.227 596.044 673.17 544.118 737.24 544.118" fill="#53C1DE"/>
</svg>
