<svg width="904" height="360" viewBox="0 0 904 360" fill="none" xmlns="http://www.w3.org/2000/svg">
<path d="M314.089 124.485C310.331 123.196 306.541 122.002 302.723 120.904C303.357 118.332 303.942 115.747 304.48 113.153C313.082 71.3923 307.458 37.7499 288.249 26.6754C269.833 16.054 239.712 27.1285 209.291 53.6008C206.294 56.2153 203.363 58.9051 200.501 61.6677C198.585 59.8307 196.634 58.0295 194.651 56.2648C162.77 27.9566 130.813 16.029 111.625 27.1363C93.2258 37.7874 87.7761 69.4158 95.5211 108.992C96.2916 112.912 97.1617 116.811 98.1303 120.686C93.6086 121.97 89.2416 123.339 85.0637 124.795C47.6871 137.825 23.8162 158.25 23.8162 179.433C23.8162 201.313 49.4402 223.259 88.3729 236.565C91.5298 237.639 94.7129 238.634 97.9194 239.549C96.8777 243.724 95.9529 247.927 95.1461 252.153C87.762 291.042 93.529 321.921 111.88 332.506C130.834 343.436 162.645 332.202 193.622 305.125C196.07 302.984 198.528 300.714 200.989 298.334C204.088 301.325 207.271 304.229 210.532 307.042C240.537 332.861 270.17 343.287 288.505 332.674C307.442 321.712 313.595 288.539 305.605 248.18C304.995 245.098 304.284 241.949 303.487 238.743C305.722 238.084 307.914 237.403 310.053 236.693C350.526 223.284 376.858 201.606 376.858 179.433C376.858 158.173 352.218 137.611 314.089 124.485V124.485Z" fill="#53C1DE"/>
<path d="M305.309 222.378C303.379 223.017 301.398 223.634 299.38 224.233C294.911 210.088 288.88 195.047 281.502 179.508C288.544 164.337 294.341 149.489 298.684 135.435C302.295 136.482 305.801 137.583 309.179 138.747C341.85 149.992 361.777 166.621 361.777 179.433C361.777 193.081 340.254 210.799 305.311 222.378H305.309ZM290.81 251.11C294.342 268.956 294.847 285.091 292.506 297.705C290.403 309.039 286.175 316.595 280.948 319.621C269.821 326.061 246.027 317.69 220.369 295.609C217.427 293.078 214.463 290.375 211.491 287.516C221.439 276.635 231.381 263.986 241.084 249.94C258.152 248.426 274.276 245.949 288.899 242.57C289.617 245.476 290.258 248.324 290.81 251.11ZM144.175 318.509C133.305 322.347 124.648 322.457 119.415 319.44C108.278 313.018 103.65 288.222 109.964 254.966C110.715 251.036 111.575 247.127 112.542 243.245C127.002 246.443 143.01 248.744 160.118 250.132C169.885 263.876 180.114 276.51 190.423 287.574C188.232 289.693 185.99 291.758 183.697 293.767C169.999 305.742 156.273 314.235 144.177 318.509H144.175ZM93.2508 222.294C76.0359 216.41 61.8193 208.763 52.0744 200.42C43.3185 192.92 38.8968 185.475 38.8968 179.433C38.8968 166.579 58.0632 150.181 90.029 139.036C94.0412 137.644 98.0933 136.369 102.18 135.213C106.599 149.583 112.394 164.607 119.387 179.8C112.303 195.22 106.425 210.483 101.966 225.022C99.039 224.184 96.133 223.274 93.2508 222.294ZM110.322 106.096C103.686 72.1861 108.092 46.6074 119.181 40.189C130.993 33.3518 157.109 43.1013 184.636 67.5425C186.395 69.1049 188.162 70.7408 189.933 72.4329C179.677 83.4465 169.541 95.9851 159.859 109.65C143.255 111.189 127.36 113.661 112.748 116.972C111.848 113.367 111.039 109.74 110.322 106.094V106.096ZM262.608 143.699C259.156 137.737 255.577 131.851 251.872 126.043C263.137 127.465 273.929 129.356 284.063 131.67C281.021 141.421 277.229 151.617 272.764 162.07C269.501 155.879 266.115 149.754 262.608 143.699ZM200.506 83.2106C207.462 90.7462 214.428 99.1615 221.281 108.291C207.38 107.634 193.456 107.631 179.555 108.281C186.414 99.2365 193.44 90.8337 200.506 83.2106ZM138.005 143.802C134.542 149.809 131.219 155.896 128.04 162.059C123.648 151.642 119.89 141.4 116.822 131.51C126.895 129.256 137.636 127.413 148.828 126.015C145.082 131.858 141.473 137.789 138.005 143.802ZM149.15 233.928C137.588 232.637 126.684 230.889 116.614 228.697C119.731 218.631 123.571 208.169 128.057 197.529C131.25 203.696 134.587 209.787 138.066 215.797C141.616 221.928 145.312 227.973 149.15 233.928ZM200.923 276.721C193.775 269.007 186.645 260.477 179.682 251.3C186.441 251.566 193.332 251.7 200.337 251.7C207.533 251.7 214.647 251.539 221.648 251.227C214.774 260.57 207.832 269.114 200.923 276.721ZM272.907 196.987C277.626 207.743 281.604 218.149 284.763 228.044C274.526 230.379 263.475 232.261 251.83 233.657C255.562 227.742 259.175 221.752 262.669 215.693C266.22 209.534 269.634 203.297 272.907 196.987ZM249.604 208.158C244.256 217.449 238.607 226.562 232.667 235.485C222.192 236.234 211.368 236.62 200.337 236.62C189.351 236.62 178.664 236.278 168.373 235.61C162.278 226.708 156.523 217.579 151.119 208.241C145.74 198.953 140.716 189.465 136.057 179.796C140.704 170.124 145.713 160.63 151.073 151.334V151.337C156.432 142.04 162.142 132.949 168.191 124.085C178.691 123.292 189.456 122.876 200.338 122.876C211.269 122.876 222.048 123.295 232.545 124.095C238.533 132.945 244.206 142.004 249.555 151.255C254.934 160.529 260.01 169.977 264.775 179.582C260.059 189.284 254.999 198.816 249.605 208.158H249.604ZM280.716 39.7405C292.538 46.559 297.136 74.0532 289.708 110.109C289.221 112.458 288.692 114.798 288.121 117.128C273.474 113.748 257.569 111.233 240.916 109.67C231.215 95.8569 221.164 83.2965 211.074 72.4251C213.718 69.8761 216.425 67.3931 219.192 64.9786C245.257 42.2951 269.617 33.3393 280.716 39.7405Z" fill="#192734"/>
<path d="M200.337 147.908C217.749 147.908 231.862 162.023 231.862 179.433C231.862 196.845 217.749 210.96 200.337 210.96C182.927 210.96 168.812 196.845 168.812 179.433C168.812 162.023 182.927 147.908 200.337 147.908" fill="#53C1DE"/>
<path d="M445.28 67.84C461.92 67.84 474.667 70.8267 483.52 76.8C492.373 82.6667 496.8 91.84 496.8 104.32C496.8 112.107 494.987 118.453 491.36 123.36C487.84 128.16 482.72 131.947 476 134.72C478.24 137.493 480.587 140.693 483.04 144.32C485.493 147.84 487.893 151.573 490.24 155.52C492.693 159.36 495.04 163.413 497.28 167.68C499.52 171.84 501.6 175.947 503.52 180H475.52C473.493 176.373 471.413 172.693 469.28 168.96C467.253 165.227 465.12 161.6 462.88 158.08C460.747 154.56 458.613 151.253 456.48 148.16C454.347 144.96 452.213 142.08 450.08 139.52H437.76V180H412.8V70.72C418.24 69.6533 423.84 68.9067 429.6 68.48C435.467 68.0533 440.693 67.84 445.28 67.84ZM446.72 89.12C444.907 89.12 443.253 89.1733 441.76 89.28C440.373 89.3867 439.04 89.4933 437.76 89.6V119.68H444.8C454.187 119.68 460.907 118.507 464.96 116.16C469.013 113.813 471.04 109.813 471.04 104.16C471.04 98.72 468.96 94.88 464.8 92.64C460.747 90.2933 454.72 89.12 446.72 89.12ZM509.856 138.56C509.856 131.093 510.976 124.587 513.216 119.04C515.563 113.387 518.603 108.693 522.336 104.96C526.07 101.227 530.336 98.4 535.136 96.48C540.043 94.56 545.056 93.6 550.176 93.6C562.123 93.6 571.563 97.28 578.496 104.64C585.43 111.893 588.896 122.613 588.896 136.8C588.896 138.187 588.843 139.733 588.736 141.44C588.63 143.04 588.523 144.48 588.416 145.76H534.336C534.87 150.667 537.163 154.56 541.216 157.44C545.27 160.32 550.71 161.76 557.536 161.76C561.91 161.76 566.176 161.387 570.336 160.64C574.603 159.787 578.07 158.773 580.736 157.6L583.936 176.96C582.656 177.6 580.95 178.24 578.816 178.88C576.683 179.52 574.283 180.053 571.616 180.48C569.056 181.013 566.283 181.44 563.296 181.76C560.31 182.08 557.323 182.24 554.336 182.24C546.763 182.24 540.15 181.12 534.496 178.88C528.95 176.64 524.31 173.6 520.576 169.76C516.95 165.813 514.23 161.173 512.416 155.84C510.71 150.507 509.856 144.747 509.856 138.56ZM565.856 129.44C565.75 127.413 565.376 125.44 564.736 123.52C564.203 121.6 563.296 119.893 562.016 118.4C560.843 116.907 559.296 115.68 557.376 114.72C555.563 113.76 553.27 113.28 550.496 113.28C547.83 113.28 545.536 113.76 543.616 114.72C541.696 115.573 540.096 116.747 538.816 118.24C537.536 119.733 536.523 121.493 535.776 123.52C535.136 125.44 534.656 127.413 534.336 129.44H565.856ZM639.454 163.36C641.8 163.36 644.04 163.307 646.174 163.2C648.307 163.093 650.014 162.933 651.294 162.72V144.64C650.334 144.427 648.894 144.213 646.974 144C645.054 143.787 643.294 143.68 641.694 143.68C639.454 143.68 637.32 143.84 635.294 144.16C633.374 144.373 631.667 144.853 630.174 145.6C628.68 146.347 627.507 147.36 626.654 148.64C625.8 149.92 625.374 151.52 625.374 153.44C625.374 157.173 626.6 159.787 629.054 161.28C631.614 162.667 635.08 163.36 639.454 163.36ZM637.534 93.6C644.574 93.6 650.44 94.4 655.134 96C659.827 97.6 663.56 99.8933 666.334 102.88C669.214 105.867 671.24 109.493 672.414 113.76C673.587 118.027 674.174 122.773 674.174 128V177.6C670.76 178.347 666.014 179.2 659.934 180.16C653.854 181.227 646.494 181.76 637.854 181.76C632.414 181.76 627.454 181.28 622.974 180.32C618.6 179.36 614.814 177.813 611.614 175.68C608.414 173.44 605.96 170.56 604.254 167.04C602.547 163.52 601.694 159.2 601.694 154.08C601.694 149.173 602.654 145.013 604.574 141.6C606.6 138.187 609.267 135.467 612.574 133.44C615.88 131.413 619.667 129.973 623.934 129.12C628.2 128.16 632.627 127.68 637.214 127.68C640.307 127.68 643.027 127.84 645.374 128.16C647.827 128.373 649.8 128.693 651.294 129.12V126.88C651.294 122.827 650.067 119.573 647.614 117.12C645.16 114.667 640.894 113.44 634.814 113.44C630.76 113.44 626.76 113.76 622.814 114.4C618.867 114.933 615.454 115.733 612.574 116.8L609.534 97.6C610.92 97.1733 612.627 96.7467 614.654 96.32C616.787 95.7867 619.08 95.36 621.534 95.04C623.987 94.6133 626.547 94.2933 629.214 94.08C631.987 93.76 634.76 93.6 637.534 93.6ZM691.731 137.92C691.731 131.84 692.691 126.133 694.611 120.8C696.638 115.36 699.518 110.667 703.251 106.72C706.985 102.667 711.518 99.4667 716.851 97.12C722.185 94.7733 728.265 93.6 735.091 93.6C739.571 93.6 743.678 94.0267 747.411 94.88C751.145 95.6267 754.771 96.7467 758.291 98.24L753.331 117.28C751.091 116.427 748.638 115.68 745.971 115.04C743.305 114.4 740.318 114.08 737.011 114.08C729.971 114.08 724.691 116.267 721.171 120.64C717.758 125.013 716.051 130.773 716.051 137.92C716.051 145.493 717.651 151.36 720.851 155.52C724.158 159.68 729.865 161.76 737.971 161.76C740.851 161.76 743.945 161.493 747.251 160.96C750.558 160.427 753.598 159.573 756.371 158.4L759.731 177.92C756.958 179.093 753.491 180.107 749.331 180.96C745.171 181.813 740.585 182.24 735.571 182.24C727.891 182.24 721.278 181.12 715.731 178.88C710.185 176.533 705.598 173.387 701.971 169.44C698.451 165.493 695.838 160.853 694.131 155.52C692.531 150.08 691.731 144.213 691.731 137.92ZM774.931 74.88L798.771 71.04V95.84H827.411V115.68H798.771V145.28C798.771 150.293 799.625 154.293 801.331 157.28C803.145 160.267 806.718 161.76 812.051 161.76C814.611 161.76 817.225 161.547 819.891 161.12C822.665 160.587 825.171 159.893 827.411 159.04L830.771 177.6C827.891 178.773 824.691 179.787 821.171 180.64C817.651 181.493 813.331 181.92 808.211 181.92C801.705 181.92 796.318 181.067 792.051 179.36C787.785 177.547 784.371 175.093 781.811 172C779.251 168.8 777.438 164.96 776.371 160.48C775.411 156 774.931 151.04 774.931 145.6V74.88ZM487.2 305C480.053 292.307 472.32 279.773 464 267.4C455.68 255.027 446.827 243.347 437.44 232.36V305H412.8V194.12H433.12C436.64 197.64 440.533 201.96 444.8 207.08C449.067 212.2 453.387 217.693 457.76 223.56C462.24 229.32 466.667 235.347 471.04 241.64C475.413 247.827 479.52 253.8 483.36 259.56V194.12H508.16V305H487.2ZM564.298 288.36C566.644 288.36 568.884 288.307 571.018 288.2C573.151 288.093 574.858 287.933 576.138 287.72V269.64C575.178 269.427 573.738 269.213 571.818 269C569.898 268.787 568.138 268.68 566.538 268.68C564.298 268.68 562.164 268.84 560.138 269.16C558.218 269.373 556.511 269.853 555.018 270.6C553.524 271.347 552.351 272.36 551.498 273.64C550.644 274.92 550.218 276.52 550.218 278.44C550.218 282.173 551.444 284.787 553.898 286.28C556.458 287.667 559.924 288.36 564.298 288.36ZM562.378 218.6C569.418 218.6 575.284 219.4 579.978 221C584.671 222.6 588.404 224.893 591.178 227.88C594.058 230.867 596.084 234.493 597.258 238.76C598.431 243.027 599.018 247.773 599.018 253V302.6C595.604 303.347 590.858 304.2 584.778 305.16C578.698 306.227 571.338 306.76 562.698 306.76C557.258 306.76 552.298 306.28 547.818 305.32C543.444 304.36 539.658 302.813 536.458 300.68C533.258 298.44 530.804 295.56 529.098 292.04C527.391 288.52 526.538 284.2 526.538 279.08C526.538 274.173 527.498 270.013 529.418 266.6C531.444 263.187 534.111 260.467 537.418 258.44C540.724 256.413 544.511 254.973 548.778 254.12C553.044 253.16 557.471 252.68 562.057 252.68C565.151 252.68 567.871 252.84 570.218 253.16C572.671 253.373 574.644 253.693 576.138 254.12V251.88C576.138 247.827 574.911 244.573 572.458 242.12C570.004 239.667 565.738 238.44 559.658 238.44C555.604 238.44 551.604 238.76 547.658 239.4C543.711 239.933 540.298 240.733 537.418 241.8L534.378 222.6C535.764 222.173 537.471 221.747 539.498 221.32C541.631 220.787 543.924 220.36 546.378 220.04C548.831 219.613 551.391 219.293 554.058 219.08C556.831 218.76 559.604 218.6 562.378 218.6ZM619.775 199.88L643.615 196.04V220.84H672.255V240.68H643.615V270.28C643.615 275.293 644.468 279.293 646.175 282.28C647.988 285.267 651.562 286.76 656.895 286.76C659.455 286.76 662.068 286.547 664.735 286.12C667.508 285.587 670.015 284.893 672.255 284.04L675.615 302.6C672.735 303.773 669.535 304.787 666.015 305.64C662.495 306.493 658.175 306.92 653.055 306.92C646.548 306.92 641.162 306.067 636.895 304.36C632.628 302.547 629.215 300.093 626.655 297C624.095 293.8 622.282 289.96 621.215 285.48C620.255 281 619.775 276.04 619.775 270.6V199.88ZM715.509 305H691.669V220.84H715.509V305ZM717.749 196.52C717.749 200.893 716.309 204.36 713.429 206.92C710.655 209.373 707.349 210.6 703.509 210.6C699.669 210.6 696.309 209.373 693.429 206.92C690.655 204.36 689.269 200.893 689.269 196.52C689.269 192.147 690.655 188.733 693.429 186.28C696.309 183.72 699.669 182.44 703.509 182.44C707.349 182.44 710.655 183.72 713.429 186.28C716.309 188.733 717.749 192.147 717.749 196.52ZM758.299 305C752.859 294.333 747.312 281.853 741.659 267.56C736.112 253.267 730.832 237.693 725.819 220.84H751.099C752.165 225 753.392 229.533 754.779 234.44C756.272 239.24 757.765 244.147 759.259 249.16C760.859 254.067 762.405 258.867 763.899 263.56C765.499 268.253 767.045 272.52 768.539 276.36C769.925 272.52 771.419 268.253 773.019 263.56C774.619 258.867 776.165 254.067 777.659 249.16C779.259 244.147 780.752 239.24 782.139 234.44C783.632 229.533 784.912 225 785.979 220.84H810.619C805.605 237.693 800.272 253.267 794.619 267.56C789.072 281.853 783.579 294.333 778.139 305H758.299ZM817.2 263.56C817.2 256.093 818.32 249.587 820.56 244.04C822.907 238.387 825.947 233.693 829.68 229.96C833.413 226.227 837.68 223.4 842.48 221.48C847.387 219.56 852.4 218.6 857.52 218.6C869.467 218.6 878.907 222.28 885.84 229.64C892.773 236.893 896.24 247.613 896.24 261.8C896.24 263.187 896.187 264.733 896.08 266.44C895.973 268.04 895.867 269.48 895.76 270.76H841.68C842.213 275.667 844.507 279.56 848.56 282.44C852.613 285.32 858.053 286.76 864.88 286.76C869.253 286.76 873.52 286.387 877.68 285.64C881.947 284.787 885.413 283.773 888.08 282.6L891.28 301.96C890 302.6 888.293 303.24 886.16 303.88C884.027 304.52 881.627 305.053 878.96 305.48C876.4 306.013 873.627 306.44 870.64 306.76C867.653 307.08 864.667 307.24 861.68 307.24C854.107 307.24 847.493 306.12 841.84 303.88C836.293 301.64 831.653 298.6 827.92 294.76C824.293 290.813 821.573 286.173 819.76 280.84C818.053 275.507 817.2 269.747 817.2 263.56ZM873.2 254.44C873.093 252.413 872.72 250.44 872.08 248.52C871.547 246.6 870.64 244.893 869.36 243.4C868.187 241.907 866.64 240.68 864.72 239.72C862.907 238.76 860.613 238.28 857.84 238.28C855.173 238.28 852.88 238.76 850.96 239.72C849.04 240.573 847.44 241.747 846.16 243.24C844.88 244.733 843.867 246.493 843.12 248.52C842.48 250.44 842 252.413 841.68 254.44H873.2Z" fill="#53C1DE"/>
</svg>
