<svg width="270" height="101" viewBox="0 0 270 101" fill="none" xmlns="http://www.w3.org/2000/svg">
<g clip-path="url(#clip0)">
<path fill-rule="evenodd" clip-rule="evenodd" d="M249.79 7.10827L252.38 10.5183C253.06 11.4183 252.89 12.7083 251.99 13.3883L249.24 15.4783C249.74 16.8083 250.06 18.2283 250.19 19.6783L253.32 20.1083C254.44 20.2583 255.22 21.2983 255.07 22.4183L254.49 26.6683C254.34 27.7883 253.3 28.5783 252.18 28.4183L248.76 27.9483C248.15 29.2783 247.37 30.4983 246.45 31.5883L248.37 34.1083C249.05 35.0083 248.87 36.2983 247.97 36.9783L244.56 39.5683C243.66 40.2483 242.37 40.0683 241.69 39.1783L239.6 36.4283C238.26 36.9283 236.85 37.2483 235.39 37.3783L234.96 40.5083C234.81 41.6283 233.77 42.4083 232.65 42.2583L228.4 41.6783C227.28 41.5283 226.5 40.4883 226.65 39.3683L227.12 35.9483C225.8 35.3383 224.57 34.5583 223.48 33.6483L220.96 35.5583C220.06 36.2383 218.77 36.0683 218.09 35.1683L215.5 31.7583C214.82 30.8583 214.99 29.5683 215.89 28.8883L218.64 26.7983C218.14 25.4583 217.82 24.0483 217.69 22.5983L214.56 22.1683C213.44 22.0183 212.65 20.9783 212.81 19.8583L213.39 15.6083C213.55 14.4883 214.58 13.7083 215.7 13.8583L219.12 14.3283C219.73 13.0083 220.51 11.7783 221.42 10.6883L219.51 8.16827C218.83 7.27827 219 5.98827 219.9 5.30827L223.31 2.71827C224.21 2.03827 225.5 2.20827 226.18 3.10827L228.27 5.85827C229.6 5.35827 231.02 5.03827 232.47 4.90827L232.9 1.77827C233.05 0.658275 234.09 -0.131725 235.21 0.0182747L239.46 0.598275C240.58 0.748275 241.37 1.78827 241.21 2.90827L240.74 6.32827C242.07 6.93827 243.29 7.71828 244.39 8.63828L246.91 6.72827C247.81 6.03827 249.1 6.20827 249.79 7.10827ZM176.67 67.1183V50.6183H185.17C186.75 50.6183 187.95 50.7483 188.78 51.0283C189.61 51.2983 190.29 51.7983 190.79 52.5283C191.3 53.2683 191.56 54.1583 191.56 55.2083C191.56 56.1183 191.36 56.9183 190.97 57.5783C190.58 58.2483 190.04 58.7883 189.36 59.1983C188.93 59.4583 188.33 59.6783 187.57 59.8483C188.18 60.0583 188.62 60.2483 188.89 60.4583C189.08 60.5983 189.35 60.8883 189.7 61.3283C190.05 61.7683 190.29 62.1183 190.41 62.3583L192.89 67.1283H187.13L184.41 62.0983C184.06 61.4483 183.76 61.0183 183.49 60.8283C183.12 60.5783 182.7 60.4483 182.24 60.4483H181.79V67.1283H176.67V67.1183ZM194.65 95.8483H185.13L183.76 100.328H175.18L185.41 73.1383H194.61L204.8 100.328H196L194.65 95.8483ZM192.87 89.9583L189.9 80.1783L186.92 89.9583H192.87ZM206.78 73.1383H220.76C223.81 73.1383 226.09 73.8583 227.6 75.3083C229.11 76.7583 229.87 78.8283 229.87 81.4983C229.87 84.2483 229.04 86.3983 227.39 87.9483C225.74 89.4983 223.21 90.2683 219.82 90.2683H215.21V100.328H206.78V73.1383V73.1383ZM215.21 84.7583H217.28C218.91 84.7583 220.06 84.4783 220.72 83.9083C221.38 83.3483 221.71 82.6183 221.71 81.7483C221.71 80.8983 221.42 80.1683 220.85 79.5783C220.28 78.9883 219.2 78.6883 217.62 78.6883H215.21V84.7583V84.7583ZM233.27 73.1383H241.7V100.328H233.27V73.1383V73.1383ZM181.79 57.3183H183.94C184.17 57.3183 184.62 57.2383 185.29 57.0883C185.63 57.0183 185.91 56.8483 186.12 56.5683C186.34 56.2883 186.44 55.9683 186.44 55.6083C186.44 55.0783 186.27 54.6583 185.93 54.3783C185.59 54.0883 184.96 53.9483 184.03 53.9483H181.79V57.3183ZM193.87 50.6183H207.52V54.1383H198.99V56.7683H206.9V60.1283H198.99V63.3783H207.77V67.1083H193.87V50.6183ZM208.98 61.6583L213.82 61.3583C213.92 62.1483 214.14 62.7383 214.46 63.1483C214.99 63.8083 215.74 64.1483 216.71 64.1483C217.43 64.1483 218 63.9783 218.39 63.6383C218.78 63.2983 218.98 62.8983 218.98 62.4483C218.98 62.0183 218.79 61.6383 218.42 61.2983C218.05 60.9583 217.18 60.6483 215.81 60.3383C213.58 59.8383 211.99 59.1683 211.03 58.3383C210.07 57.5083 209.59 56.4483 209.59 55.1583C209.59 54.3083 209.84 53.5083 210.33 52.7583C210.82 52.0083 211.56 51.4083 212.55 50.9783C213.54 50.5483 214.89 50.3383 216.61 50.3383C218.72 50.3383 220.32 50.7283 221.43 51.5183C222.53 52.3083 223.19 53.5483 223.4 55.2683L218.61 55.5583C218.48 54.8083 218.21 54.2583 217.81 53.9283C217.4 53.5883 216.83 53.4183 216.12 53.4183C215.53 53.4183 215.08 53.5483 214.78 53.7983C214.48 54.0483 214.33 54.3583 214.33 54.7183C214.33 54.9783 214.46 55.2083 214.7 55.4283C214.94 55.6383 215.5 55.8483 216.4 56.0383C218.63 56.5183 220.23 57.0083 221.19 57.4983C222.15 57.9883 222.86 58.5983 223.29 59.3283C223.73 60.0483 223.95 60.8683 223.95 61.7683C223.95 62.8283 223.66 63.7983 223.07 64.6883C222.49 65.5783 221.67 66.2583 220.62 66.7183C219.57 67.1783 218.25 67.4083 216.65 67.4083C213.85 67.4083 211.9 66.8683 210.82 65.7883C209.74 64.6883 209.13 63.3183 208.98 61.6583ZM224.69 50.6183H240.2V54.6983H235V67.1183H229.9V54.6983H224.69V50.6183V50.6183ZM207.53 11.4583C205.7 11.3183 203.85 11.3383 202.02 11.5183C196.39 12.0583 190.92 14.1083 186.4 17.6183C181.17 21.6683 177.2 27.7283 175.67 35.7583L175.19 38.2683L172.69 38.7083C170.24 39.1383 168.05 39.7283 166.13 40.4783C164.27 41.1983 162.61 42.0883 161.16 43.1383C160 43.9783 159 44.9183 158.15 45.9383C155.52 49.0883 154.3 53.0383 154.33 57.0383C154.36 61.0983 155.68 65.1983 158.12 68.5683C159.03 69.8183 160.08 70.9683 161.28 71.9683C162.5 72.9783 163.87 73.8183 165.41 74.4483C166.28 74.8083 167.21 75.1083 168.18 75.3483V82.8383C166.18 82.4783 164.34 81.9383 162.62 81.2283C160.35 80.2883 158.34 79.0783 156.57 77.5983C154.89 76.1983 153.42 74.6083 152.17 72.8783C148.84 68.2783 147.04 62.6583 147 57.0583C146.96 51.3983 148.72 45.7683 152.52 41.2083C153.75 39.7283 155.2 38.3683 156.86 37.1683C158.79 35.7683 161 34.5883 163.5 33.6183C165.22 32.9483 167.06 32.3883 169 31.9383C171.2 23.1983 175.89 16.4683 181.92 11.7983C187.56 7.42828 194.35 4.87827 201.34 4.20827C205.01 3.85827 208.73 4.01827 212.37 4.69827C212.29 5.02827 212.22 5.35827 212.18 5.69827L212.17 5.75828C212.1 6.32828 212.07 6.89827 212.1 7.47827C211.33 7.77827 210.61 8.18827 209.96 8.68827L209.93 8.70827C208.96 9.43827 208.14 10.3783 207.53 11.4583ZM260.44 30.6583C261 31.1683 261.54 31.6983 262.07 32.2683C263.14 33.4183 264.15 34.7183 265.1 36.1683C268.3 41.0883 269.94 47.6583 269.87 54.0883C269.8 60.3983 268.1 66.6783 264.62 71.2983C262.35 74.3083 259.44 76.7683 255.95 78.7183C253.56 80.0583 250.87 81.1683 247.94 82.0683V74.3183C249.52 73.7283 250.99 73.0683 252.34 72.3183C254.97 70.8483 257.12 69.0583 258.73 66.9083C261.23 63.5783 262.46 58.8683 262.51 54.0383C262.57 48.9683 261.33 43.8783 258.92 40.1783C258.23 39.1083 257.47 38.1483 256.67 37.2883C256.36 36.9583 256.05 36.6483 255.73 36.3483C255.78 35.8483 255.8 35.3383 255.77 34.8283C256.54 34.5283 257.26 34.1183 257.91 33.6183L257.94 33.5983C258.97 32.8083 259.83 31.8083 260.44 30.6583ZM235.08 12.7983C239.69 13.4283 242.91 17.6783 242.28 22.2883C241.65 26.8983 237.4 30.1283 232.79 29.4983C228.18 28.8683 224.95 24.6183 225.59 20.0083C226.23 15.3983 230.47 12.1683 235.08 12.7983Z" fill="white"/>
</g>
<path d="M19.5996 55.3848H12.5977V71H3.80859V28.3438H19.6582C24.6973 28.3438 28.584 29.4668 31.3184 31.7129C34.0527 33.959 35.4199 37.1328 35.4199 41.2344C35.4199 44.1445 34.7852 46.5762 33.5156 48.5293C32.2656 50.4629 30.3613 52.0059 27.8027 53.1582L37.0312 70.5898V71H27.5977L19.5996 55.3848ZM12.5977 48.2656H19.6875C21.8945 48.2656 23.6035 47.709 24.8145 46.5957C26.0254 45.4629 26.6309 43.9102 26.6309 41.9375C26.6309 39.9258 26.0547 38.3438 24.9023 37.1914C23.7695 36.0391 22.0215 35.4629 19.6582 35.4629H12.5977V48.2656ZM67.793 52.5137H50.918V63.9395H70.7227V71H42.1289V28.3438H70.6641V35.4629H50.918V45.6289H67.793V52.5137ZM97.998 59.8086C97.998 58.1484 97.4121 56.8789 96.2402 56C95.0684 55.1016 92.959 54.1641 89.9121 53.1875C86.8652 52.1914 84.4531 51.2148 82.6758 50.2578C77.832 47.6406 75.4102 44.1152 75.4102 39.6816C75.4102 37.377 76.0547 35.3262 77.3438 33.5293C78.6523 31.7129 80.5176 30.2969 82.9395 29.2812C85.3809 28.2656 88.1152 27.7578 91.1426 27.7578C94.1895 27.7578 96.9043 28.3145 99.2871 29.4277C101.67 30.5215 103.516 32.0742 104.824 34.0859C106.152 36.0977 106.816 38.3828 106.816 40.9414H98.0273C98.0273 38.9883 97.4121 37.4746 96.1816 36.4004C94.9512 35.3066 93.2227 34.7598 90.9961 34.7598C88.8477 34.7598 87.1777 35.2188 85.9863 36.1367C84.7949 37.0352 84.1992 38.2266 84.1992 39.7109C84.1992 41.0977 84.8926 42.2598 86.2793 43.1973C87.6855 44.1348 89.7461 45.0137 92.4609 45.834C97.4609 47.3379 101.104 49.2031 103.389 51.4297C105.674 53.6562 106.816 56.4297 106.816 59.75C106.816 63.4414 105.42 66.3418 102.627 68.4512C99.834 70.541 96.0742 71.5859 91.3477 71.5859C88.0664 71.5859 85.0781 70.9902 82.3828 69.7988C79.6875 68.5879 77.627 66.9375 76.2012 64.8477C74.7949 62.7578 74.0918 60.3359 74.0918 57.582H82.9102C82.9102 62.2891 85.7227 64.6426 91.3477 64.6426C93.4375 64.6426 95.0684 64.2227 96.2402 63.3828C97.4121 62.5234 97.998 61.332 97.998 59.8086ZM144.902 35.4629H131.836V71H123.047V35.4629H110.156V28.3438H144.902V35.4629Z" fill="white"/>
<defs>
<clipPath id="clip0">
<rect width="122.88" height="100.33" fill="white" transform="translate(147)"/>
</clipPath>
</defs>
</svg>
