<svg width="123" height="96" viewBox="0 0 123 96" fill="none" xmlns="http://www.w3.org/2000/svg">
<g clip-path="url(#clip0)">
<path fill-rule="evenodd" clip-rule="evenodd" d="M8.32 0H114.56C119.14 0 122.88 3.74 122.88 8.32V87.19C122.88 91.76 119.14 95.51 114.56 95.51H8.32C3.74 95.51 0 91.77 0 87.19V8.32C0 3.74 3.74 0 8.32 0ZM12.6 26.95H109.37V68.03H12.6V26.95ZM32.21 38.67H38.19V51.11C38.19 52.34 38.01 53.51 37.65 54.6C37.29 55.7 36.73 56.66 35.97 57.48C35.21 58.3 34.41 58.88 33.57 59.21C32.41 59.67 31.01 59.91 29.38 59.91C28.44 59.91 27.41 59.84 26.29 59.7C25.18 59.56 24.24 59.28 23.49 58.85C22.74 58.43 22.06 57.83 21.44 57.05C20.82 56.27 20.39 55.47 20.16 54.64C19.79 53.31 19.6 52.14 19.6 51.11V38.67H25.58V51.41C25.58 52.55 25.87 53.44 26.46 54.07C27.05 54.71 27.86 55.03 28.9 55.03C29.92 55.03 30.73 54.71 31.32 54.08C31.9 53.45 32.2 52.56 32.2 51.4V38.67H32.21ZM42.39 38.67H48.4V59.56H42.39V38.67ZM55.59 38.32H58.31L53.42 59.91H50.7L55.59 38.32ZM72.82 38.67H78.8V51.11C78.8 52.34 78.62 53.51 78.26 54.6C77.9 55.7 77.34 56.66 76.58 57.48C75.82 58.3 75.02 58.88 74.18 59.21C73.02 59.67 71.62 59.91 69.99 59.91C69.05 59.91 68.02 59.84 66.9 59.7C65.79 59.56 64.85 59.28 64.1 58.85C63.35 58.43 62.67 57.83 62.05 57.05C61.43 56.27 61 55.47 60.77 54.64C60.4 53.31 60.22 52.14 60.22 51.11V38.67H66.2V51.41C66.2 52.55 66.49 53.44 67.08 54.07C67.67 54.71 68.48 55.03 69.52 55.03C70.54 55.03 71.35 54.71 71.94 54.08C72.52 53.45 72.82 52.56 72.82 51.4V38.67V38.67ZM81.43 38.67H88.04L91.47 45.1L94.8 38.67H101.32L95.3 48.79L101.89 59.56H95.15L91.35 52.85L87.52 59.56H80.83L87.51 48.67L81.43 38.67ZM66.87 83.68C65.09 83.68 63.65 82.11 63.65 80.18C63.65 78.24 65.09 76.68 66.87 76.68H106.52C108.3 76.68 109.74 78.25 109.74 80.18C109.74 82.12 108.3 83.68 106.52 83.68H66.87ZM14.96 83.68C13.2 83.68 11.77 82.11 11.77 80.18C11.77 78.24 13.2 76.68 14.96 76.68H51.72C53.48 76.68 54.91 78.25 54.91 80.18C54.91 82.12 53.48 83.68 51.72 83.68H14.96ZM117.97 20.1H5.29V88C5.29 88.64 5.54 89.2 5.96 89.63C6.39 90.05 6.95 90.3 7.59 90.3H115.63C116.27 90.3 116.83 90.05 117.26 89.63C117.69 89.2 117.93 88.64 117.93 88V20.1H117.97ZM106.64 6.16C108.91 6.16 110.75 8 110.75 10.27C110.75 12.54 108.91 14.38 106.64 14.38C104.37 14.38 102.53 12.54 102.53 10.27C102.54 8 104.38 6.16 106.64 6.16ZM78.8 6.16C81.07 6.16 82.91 8 82.91 10.27C82.91 12.54 81.07 14.38 78.8 14.38C76.53 14.38 74.69 12.54 74.69 10.27C74.69 8 76.53 6.16 78.8 6.16ZM92.72 6.16C94.99 6.16 96.83 8 96.83 10.27C96.83 12.54 94.99 14.38 92.72 14.38C90.45 14.38 88.61 12.54 88.61 10.27C88.61 8 90.45 6.16 92.72 6.16Z" fill="white"/>
</g>
<defs>
<clipPath id="clip0">
<rect width="122.88" height="95.51" fill="white"/>
</clipPath>
</defs>
</svg>
